<svg class="animated" id="freepik_stories-schedule" xmlns="http://www.w3.org/2000/svg" viewBox="0 0 500 500" version="1.1" xmlns:xlink="http://www.w3.org/1999/xlink" xmlns:svgjs="http://svgjs.com/svgjs"><style>svg#freepik_stories-schedule:not(.animated) .animable {opacity: 0;}svg#freepik_stories-schedule.animated #freepik--Calendar--inject-415 {animation: 1.5s Infinite  linear wind;animation-delay: 0s;}svg#freepik_stories-schedule.animated #freepik--Character--inject-415 {animation: 1.5s Infinite  linear floating;animation-delay: 0s;}            @keyframes wind {                0% {                    transform: rotate( 0deg );                }                25% {                    transform: rotate( 1deg );                }                75% {                    transform: rotate( -1deg );                }            }                    @keyframes floating {                0% {                    opacity: 1;                    transform: translateY(0px);                }                50% {                    transform: translateY(-10px);                }                100% {                    opacity: 1;                    transform: translateY(0px);                }            }        </style><g id="freepik--Shadow--inject-415" class="animable" style="transform-origin: 250px 416.24px;"><ellipse id="freepik--path--inject-415" cx="250" cy="416.24" rx="193.89" ry="11.32" style="fill: rgb(245, 245, 245); transform-origin: 250px 416.24px;" class="animable"></ellipse></g><g id="freepik--Calendar--inject-415" class="animable animator-active" style="transform-origin: 276.524px 204.284px;"><path d="M401.91,312.41h-24v-1h24a16,16,0,0,0,13.73-8.36l.88.48A17,17,0,0,1,401.91,312.41Z" style="fill: #0D69E3; transform-origin: 397.215px 307.73px;" id="elqav3tq2q5z" class="animable"></path><rect x="363.33" y="311.41" width="9.83" height="1" style="fill: #0D69E3; transform-origin: 368.245px 311.91px;" id="elp7qf32j60eh" class="animable"></rect><path d="M401.91,308.91H121.11a10.85,10.85,0,0,1-11-12l15.17-174a13.4,13.4,0,0,1,13-12h280.8a10.86,10.86,0,0,1,11,12L415,296.91A13.4,13.4,0,0,1,401.91,308.91Z" style="fill: #0D69E3; transform-origin: 270.094px 209.91px;" id="elyhxxkw9h67" class="animable"></path><path d="M396.06,305.26H122.26A9.24,9.24,0,0,1,112.94,295l13.82-158.51a3.28,3.28,0,0,1,3.19-2.94H418.32a2.65,2.65,0,0,1,2.68,2.94L407.17,295A11.41,11.41,0,0,1,396.06,305.26Z" style="fill: rgb(255, 255, 255); transform-origin: 266.95px 219.405px;" id="elku64iby8sg8" class="animable"></path><path d="M157.16,125.66a13.32,13.32,0,0,1-13.47-14.75,16.44,16.44,0,0,1,16-14.75,13.31,13.31,0,0,1,13.46,14.75h-6a7.9,7.9,0,0,0-8-8.75,9.75,9.75,0,0,0-9.52,8.75,7.9,7.9,0,0,0,8,8.75Z" style="fill: rgb(38, 50, 56); transform-origin: 158.421px 110.91px;" id="el9vmogqszti7" class="animable"></path><path d="M216.51,125.66A13.32,13.32,0,0,1,203,110.91a16.44,16.44,0,0,1,16-14.75,13.31,13.31,0,0,1,13.46,14.75h-6a7.9,7.9,0,0,0-8-8.75,9.75,9.75,0,0,0-9.52,8.75,7.91,7.91,0,0,0,8,8.75Z" style="fill: rgb(38, 50, 56); transform-origin: 217.731px 110.91px;" id="elcbsutl2v26h" class="animable"></path><path d="M275.86,125.66a13.32,13.32,0,0,1-13.46-14.75,16.42,16.42,0,0,1,16-14.75,13.31,13.31,0,0,1,13.46,14.75h-6a7.89,7.89,0,0,0-8-8.75,9.74,9.74,0,0,0-9.51,8.75,7.9,7.9,0,0,0,8,8.75Z" style="fill: rgb(38, 50, 56); transform-origin: 277.131px 110.91px;" id="elvlcg2uf5e0r" class="animable"></path><path d="M335.21,125.66a13.32,13.32,0,0,1-13.46-14.75,16.43,16.43,0,0,1,16-14.75,13.32,13.32,0,0,1,13.47,14.75h-6a7.9,7.9,0,0,0-8-8.75,9.74,9.74,0,0,0-9.51,8.75,7.9,7.9,0,0,0,8,8.75Z" style="fill: rgb(38, 50, 56); transform-origin: 336.485px 110.91px;" id="el77gprpjjc3v" class="animable"></path><path d="M394.56,125.66a13.32,13.32,0,0,1-13.46-14.75,16.43,16.43,0,0,1,16-14.75,13.32,13.32,0,0,1,13.47,14.75h-6a7.9,7.9,0,0,0-8-8.75,9.75,9.75,0,0,0-9.51,8.75,7.9,7.9,0,0,0,8,8.75Z" style="fill: rgb(38, 50, 56); transform-origin: 395.835px 110.91px;" id="el0f2g6sl180rp" class="animable"></path><path d="M395.34,298.07H124.67a.44.44,0,0,1-.45-.5l13.49-154.66a.55.55,0,0,1,.54-.5H408.91a.45.45,0,0,1,.46.5L395.88,297.57A.55.55,0,0,1,395.34,298.07Zm-270.08-1H394.92l13.41-153.66H138.67Z" style="fill: rgb(224, 224, 224); transform-origin: 266.794px 220.24px;" id="elxsksggtvf6" class="animable"></path><path d="M398,267.14H127.37a.45.45,0,0,1-.45-.5.54.54,0,0,1,.54-.5H398.12a.45.45,0,0,1,.46.5A.57.57,0,0,1,398,267.14Z" style="fill: rgb(224, 224, 224); transform-origin: 262.75px 266.64px;" id="elgdfh3auis3" class="animable"></path><path d="M400.73,236.21H130.07a.46.46,0,0,1-.46-.5.56.56,0,0,1,.55-.5H400.82a.45.45,0,0,1,.46.5A.57.57,0,0,1,400.73,236.21Z" style="fill: rgb(224, 224, 224); transform-origin: 265.446px 235.71px;" id="elujs2uonyj0o" class="animable"></path><path d="M403.43,205.27H132.77a.45.45,0,0,1-.46-.5.57.57,0,0,1,.55-.5H403.52a.45.45,0,0,1,.45.5A.54.54,0,0,1,403.43,205.27Z" style="fill: rgb(224, 224, 224); transform-origin: 268.14px 204.77px;" id="el1s8df0i4u2l" class="animable"></path><path d="M406.13,174.34H135.47a.45.45,0,0,1-.46-.5.55.55,0,0,1,.54-.5H406.22a.44.44,0,0,1,.45.5A.54.54,0,0,1,406.13,174.34Z" style="fill: rgb(224, 224, 224); transform-origin: 270.841px 173.84px;" id="elbnukt7rlkn5" class="animable"></path><path d="M361.5,298.07a.44.44,0,0,1-.45-.5l13.49-154.66a.55.55,0,0,1,.54-.5.45.45,0,0,1,.46.5L362.05,297.57A.56.56,0,0,1,361.5,298.07Z" style="fill: rgb(224, 224, 224); transform-origin: 368.294px 220.24px;" id="eldy467drjfau" class="animable"></path><path d="M327.67,298.07a.45.45,0,0,1-.46-.5L340.7,142.91a.56.56,0,0,1,.55-.5.44.44,0,0,1,.45.5L328.21,297.57A.54.54,0,0,1,327.67,298.07Z" style="fill: rgb(224, 224, 224); transform-origin: 334.456px 220.24px;" id="eltjkemgi7jgr" class="animable"></path><path d="M293.84,298.07a.45.45,0,0,1-.46-.5l13.49-154.66a.56.56,0,0,1,.55-.5.44.44,0,0,1,.45.5L294.38,297.57A.55.55,0,0,1,293.84,298.07Z" style="fill: rgb(224, 224, 224); transform-origin: 300.626px 220.24px;" id="elbnj3tg5fu8s" class="animable"></path><path d="M260,298.07a.45.45,0,0,1-.46-.5L273,142.91a.55.55,0,0,1,.54-.5.45.45,0,0,1,.46.5L260.55,297.57A.55.55,0,0,1,260,298.07Z" style="fill: rgb(224, 224, 224); transform-origin: 266.77px 220.24px;" id="elhxepm11rc15" class="animable"></path><path d="M226.17,298.07a.44.44,0,0,1-.45-.5l13.49-154.66a.54.54,0,0,1,.54-.5.45.45,0,0,1,.46.5L226.72,297.57A.56.56,0,0,1,226.17,298.07Z" style="fill: rgb(224, 224, 224); transform-origin: 232.964px 220.24px;" id="elez0vrhl2jk" class="animable"></path><path d="M192.34,298.07a.45.45,0,0,1-.46-.5l13.49-154.66a.56.56,0,0,1,.55-.5.44.44,0,0,1,.45.5L192.88,297.57A.54.54,0,0,1,192.34,298.07Z" style="fill: rgb(224, 224, 224); transform-origin: 199.126px 220.24px;" id="eldiz6x4yqikh" class="animable"></path><path d="M158.51,298.07a.45.45,0,0,1-.46-.5l13.49-154.66a.56.56,0,0,1,.55-.5.44.44,0,0,1,.45.5L159.05,297.57A.55.55,0,0,1,158.51,298.07Z" style="fill: rgb(224, 224, 224); transform-origin: 165.296px 220.24px;" id="elspllspslpp" class="animable"></path><path d="M295.67,201.68H275a2.88,2.88,0,0,1-2.91-3.2l1.6-18.35a3.55,3.55,0,0,1,3.47-3.2h20.67a2.88,2.88,0,0,1,2.92,3.2l-1.6,18.35A3.55,3.55,0,0,1,295.67,201.68Z" style="fill: #0D69E3; transform-origin: 286.42px 189.305px;" id="el8dgzdz62dlj" class="animable"></path><g id="elfkd60sozpxp"><path d="M295.67,201.68H275a2.88,2.88,0,0,1-2.91-3.2l1.6-18.35a3.55,3.55,0,0,1,3.47-3.2h20.67a2.88,2.88,0,0,1,2.92,3.2l-1.6,18.35A3.55,3.55,0,0,1,295.67,201.68Z" style="fill: rgb(255, 255, 255); opacity: 0.6; transform-origin: 286.42px 189.305px;" class="animable" id="ell8nome82tl"></path></g><polygon points="439.89 201.68 418.16 201.68 420.31 176.93 442.05 176.93 433.88 189.31 439.89 201.68" style="fill: rgb(255, 255, 255); transform-origin: 430.105px 189.305px;" id="el9m0269l85ct" class="animable"></polygon><path d="M440.7,202.18H417.61l2.25-25.75H443l-8.49,12.88Zm-22-1h20.37l-5.77-11.87,7.84-11.88H420.77Z" style="fill: #0D69E3; transform-origin: 430.305px 189.305px;" id="ell8yrbj0gjfg" class="animable"></path><path d="M360.44,232.61H339.77a2.88,2.88,0,0,1-2.92-3.19l1.6-18.36a3.56,3.56,0,0,1,3.48-3.19H362.6a2.89,2.89,0,0,1,2.92,3.19l-1.6,18.36A3.56,3.56,0,0,1,360.44,232.61Z" style="fill: #0D69E3; transform-origin: 351.184px 220.24px;" id="elwuhdbb70bc" class="animable"></path><g id="el0nwlu7k1g8z"><path d="M360.44,232.61H339.77a2.88,2.88,0,0,1-2.92-3.19l1.6-18.36a3.56,3.56,0,0,1,3.48-3.19H362.6a2.89,2.89,0,0,1,2.92,3.19l-1.6,18.36A3.56,3.56,0,0,1,360.44,232.61Z" style="fill: rgb(255, 255, 255); opacity: 0.4; transform-origin: 351.184px 220.24px;" class="animable" id="elsvqai78c1nc"></path></g><path d="M400.05,170.75H345.17a2.88,2.88,0,0,1-2.92-3.2l1.6-18.35a3.55,3.55,0,0,1,3.47-3.2h54.89a2.89,2.89,0,0,1,2.92,3.2l-1.6,18.35A3.55,3.55,0,0,1,400.05,170.75Z" style="fill: #0D69E3; transform-origin: 373.689px 158.375px;" id="elkq5y6trvt6b" class="animable"></path><path d="M181.12,197.5c-8.34,0-15.29-2.95-20.22-8.6-6.33-7.27-7.28-16.29-2.49-23.55,7.11-10.75,25.64-16.48,37.83-14.89a.46.46,0,0,1,.39.56.56.56,0,0,1-.6.43c-11.89-1.55-29.91,4-36.79,14.4-5.42,8.2-2.29,16.92,2.45,22.36,6.61,7.58,15.62,8.65,22,8.2,12.19-.85,25.54-7.82,33.23-17.34,2.15-2.66,5.45-7.77,3.43-12-3-6.33-13-5.89-21.34-4.81a.46.46,0,0,1-.52-.43.55.55,0,0,1,.48-.56c5.58-.73,18.64-2.42,22.29,5.32,2.26,4.76-1.28,10.26-3.58,13.12-7.87,9.74-21.54,16.88-34,17.74C182.82,197.47,182,197.5,181.12,197.5Z" style="fill: #0D69E3; transform-origin: 188.685px 173.849px;" id="el4ud10f46zqe" class="animable"></path><path d="M348,227.1h-.08a.89.89,0,0,1-.74-.5,23.16,23.16,0,0,0-4.19-6.42,1,1,0,0,1,1.47-1.48,21.87,21.87,0,0,1,3.93,5.69,89.09,89.09,0,0,1,11.13-9.68,1,1,0,0,1,1.39.16,1,1,0,0,1-.28,1.41,84.89,84.89,0,0,0-11.83,10.47A1.09,1.09,0,0,1,348,227.1Z" style="fill: rgb(255, 255, 255); transform-origin: 351.885px 220.8px;" id="elg33t1q7o5yj" class="animable"></path><path d="M311.17,293.33a10.14,10.14,0,0,1-10.25-11.23,12.5,12.5,0,0,1,12.21-11.22,10.13,10.13,0,0,1,10.25,11.22A12.51,12.51,0,0,1,311.17,293.33ZM313,272.88a10.28,10.28,0,0,0-10,9.22,8.33,8.33,0,0,0,8.42,9.23,10.29,10.29,0,0,0,10-9.23A8.34,8.34,0,0,0,313,272.88Z" style="fill: #0D69E3; transform-origin: 312.15px 282.105px;" id="elv4z7h4qtkh" class="animable"></path><path d="M215,231.35a10.14,10.14,0,0,1-10.25-11.23A12.51,12.51,0,0,1,217,208.89a10.14,10.14,0,0,1,10.25,11.23A12.52,12.52,0,0,1,215,231.35Zm1.78-20.46a10.28,10.28,0,0,0-10,9.23,8.33,8.33,0,0,0,8.42,9.23,10.29,10.29,0,0,0,10-9.23A8.34,8.34,0,0,0,216.8,210.89Z" style="fill: #0D69E3; transform-origin: 216px 220.12px;" id="eleg3um21khy5" class="animable"></path></g><g id="freepik--Character--inject-415" class="animable" style="transform-origin: 158.924px 280.055px;"><g id="elr1afdqm4dl"><path d="M234.54,258.24H130.64a6.78,6.78,0,0,1-6.84-7.5h0a8.37,8.37,0,0,1,8.15-7.5h103.9a6.78,6.78,0,0,1,6.84,7.5h0A8.37,8.37,0,0,1,234.54,258.24Z" style="opacity: 0.1; transform-origin: 183.245px 250.74px;" class="animable" id="elbuzqrb9s2mu"></path></g><path d="M96.39,234.41l3.9,1.67-5.23,6.41a22.13,22.13,0,0,1-2.12-5.06,2,2,0,0,1,1.45-2.49Z" style="fill: rgb(255, 139, 123); transform-origin: 96.5769px 238.45px;" id="el2ob54c6s2ed" class="animable"></path><path d="M102.08,243l-2.34,2.6a1.74,1.74,0,0,1-2.74-.19l-1.94-2.88,5.23-6.41,2.11,5A1.73,1.73,0,0,1,102.08,243Z" style="fill: rgb(255, 139, 123); transform-origin: 98.8035px 241.15px;" id="elf0k8wevhs5o" class="animable"></path><path d="M239.64,255.72,104.39,245a6.79,6.79,0,0,1-6.23-8h0a8.37,8.37,0,0,1,8.72-6.83l135.25,10.71a6.78,6.78,0,0,1,6.23,8h0A8.38,8.38,0,0,1,239.64,255.72Z" style="fill: #0D69E3; transform-origin: 173.261px 242.945px;" id="elvzixqlytv4" class="animable"></path><path d="M144.21,192.61c1.69,3.81,3.42,7.72,5.17,11.52s3.56,7.66,5.5,11a18.07,18.07,0,0,0,1.37,2c.6.71,1.27,1.44,1.95,2.19,1.39,1.49,2.88,3,4.37,4.48,3,3,6,6,9,9.13l-3,3.91a124,124,0,0,1-11-7.14c-1.78-1.29-3.52-2.63-5.26-4.09-.87-.73-1.73-1.51-2.61-2.36a24.55,24.55,0,0,1-2.51-3.09,100.37,100.37,0,0,1-6.73-11.72c-1.95-3.95-3.74-7.88-5.41-12Z" style="fill: rgb(255, 139, 123); transform-origin: 153.31px 214.725px;" id="el99no9u8tr" class="animable"></path><path d="M111.14,192c-2.27,3.71-4.6,7.44-6.93,11.13l-6.95,11.08-.85,1.38-.1.18,0,.08v0l0,.06a1.63,1.63,0,0,0-.13.24,7.93,7.93,0,0,0-.42,2.08,32.92,32.92,0,0,0,.17,5.8c.43,4.08,1.24,8.39,2.1,12.56l-4.64,1.72a65.25,65.25,0,0,1-5-12.88,33.85,33.85,0,0,1-1.17-7.33,16,16,0,0,1,.42-4.46c.14-.44.25-.84.44-1.31l.31-.68.13-.27.09-.18.77-1.51c2-4,4.21-7.88,6.44-11.72s4.55-7.61,7-11.35Z" style="fill: rgb(255, 139, 123); transform-origin: 99.1713px 212.465px;" id="elne6yv14gvh" class="animable"></path><path d="M137.6,164.31c-.18.49-.07,1,.25,1.14s.73-.16.92-.66.07-1-.25-1.14S137.79,163.81,137.6,164.31Z" style="fill: rgb(38, 50, 56); transform-origin: 138.187px 164.55px;" id="elsu4t0hd38fm" class="animable"></path><path d="M137.48,165.3a20.06,20.06,0,0,0,.76,5.23,3,3,0,0,1-2.51-.53Z" style="fill: rgb(255, 86, 82); transform-origin: 136.985px 167.956px;" id="elvogu41x0ogn" class="animable"></path><path d="M139.43,161.39a.32.32,0,0,1-.17-.09,2.44,2.44,0,0,0-2.18-.47.31.31,0,0,1-.38-.23.31.31,0,0,1,.23-.37,3.05,3.05,0,0,1,2.76.62.31.31,0,0,1,0,.44A.31.31,0,0,1,139.43,161.39Z" style="fill: rgb(38, 50, 56); transform-origin: 138.237px 160.759px;" id="elhdwbk7gvq7h" class="animable"></path><path d="M119.37,165.29c-.63,5.38.4,12.16-3.28,14.86,0,0,.77,5,9.62,6.37,9.73,1.44,5.18-4.17,5.18-4.17-5.17-2.07-4.6-6-3.27-9.59Z" style="fill: rgb(255, 139, 123); transform-origin: 124.021px 176.023px;" id="el65un838whmi" class="animable"></path><path d="M113,183.53c-.13-2.48,0-6.22,1.54-6.76,1.68-.59,11.61.2,16.59,4.71a15.74,15.74,0,0,0-1.7,7.26Z" style="fill: rgb(38, 50, 56); transform-origin: 122.046px 182.67px;" id="el6k971gbtkj" class="animable"></path><path d="M82.57,406.57a6.86,6.86,0,0,1-2.58-.74.16.16,0,0,1-.09-.15.15.15,0,0,1,.1-.13c.09,0,2.09-.8,3-.37a.78.78,0,0,1,.41.48.63.63,0,0,1-.15.73A1,1,0,0,1,82.57,406.57Zm-2.11-.86c.92.41,2.23.73,2.58.44,0,0,.14-.11,0-.4a.48.48,0,0,0-.25-.29A4.21,4.21,0,0,0,80.46,405.71Z" style="fill: #0D69E3; transform-origin: 81.6837px 405.815px;" id="el1yh1f3qjmvb" class="animable"></path><path d="M80.06,405.85a.16.16,0,0,1-.11-.05.14.14,0,0,1,0-.15c0-.08.56-1.9,1.44-2.33a.83.83,0,0,1,.69,0,.51.51,0,0,1,.39.53c0,.75-1.61,1.83-2.33,2Zm1.68-2.31a.62.62,0,0,0-.26.06,3.65,3.65,0,0,0-1.17,1.84c.75-.34,1.78-1.19,1.81-1.64,0,0,0-.15-.19-.22A.46.46,0,0,0,81.74,403.54Z" style="fill: #0D69E3; transform-origin: 81.1997px 404.547px;" id="elfrp2oli5tb" class="animable"></path><path d="M132.84,409.48a11.09,11.09,0,0,1-2-.19.15.15,0,0,1,0-.28c.33-.2,3.25-1.87,3.95-.71a.6.6,0,0,1,0,.69C134.49,409.36,133.68,409.48,132.84,409.48Zm-1.53-.42c1.24.18,2.91.15,3.19-.25,0,0,.09-.13,0-.35C134.06,407.8,132.28,408.55,131.31,409.06Z" style="fill: #0D69E3; transform-origin: 132.821px 408.687px;" id="elazh4x31zivc" class="animable"></path><path d="M130.84,409.3a.11.11,0,0,1-.08,0,.15.15,0,0,1-.07-.14,4.3,4.3,0,0,1,.92-2.54,1.17,1.17,0,0,1,.86-.27c.44.05.57.27.6.45.12.76-1.37,2.15-2.16,2.51Zm1.51-2.67a.84.84,0,0,0-.54.2,3.53,3.53,0,0,0-.78,2c.79-.49,1.81-1.59,1.73-2.05,0,0,0-.16-.32-.19Z" style="fill: #0D69E3; transform-origin: 131.883px 407.828px;" id="elyryl6mh6n7p" class="animable"></path><polygon points="123.61 409.14 130.19 409.14 130.26 393.89 123.67 393.89 123.61 409.14" style="fill: rgb(255, 139, 123); transform-origin: 126.935px 401.515px;" id="elf4tzrgjvznv" class="animable"></polygon><polygon points="72.61 404.42 78.78 405.85 83.96 390.77 77.79 389.34 72.61 404.42" style="fill: rgb(255, 139, 123); transform-origin: 78.285px 397.595px;" id="elhyec8ij3z9h" class="animable"></polygon><path d="M79.74,404.83,72.57,403a.54.54,0,0,0-.64.3l-2.47,5.41a1,1,0,0,0,.69,1.38c2.52.59,3.77.75,6.92,1.54,1.94.49,5.9,1.7,8.58,2.37s3.59-1.92,2.54-2.43c-4.69-2.33-6.22-4.29-7.5-6.12A1.66,1.66,0,0,0,79.74,404.83Z" style="fill: rgb(38, 50, 56); transform-origin: 78.9949px 408.545px;" id="el1effqihc6nh" class="animable"></path><path d="M130.12,408.38h-7.19a.56.56,0,0,0-.55.45l-1.07,5.85a1,1,0,0,0,1,1.17c2.59,0,6.33-.19,9.59-.19,3.82,0,3.89.2,8.36.2,2.7,0,3.35-2.73,2.21-3-5.2-1.12-6.18-1.24-10.74-4A3.12,3.12,0,0,0,130.12,408.38Z" style="fill: rgb(38, 50, 56); transform-origin: 132.151px 412.12px;" id="elr57gcrisvkf" class="animable"></path><path d="M108.38,179.7c-6.26.5-15.09,16.2-15.09,16.2l11.34,10.27a100.54,100.54,0,0,0,9.61-12.64C118.69,186.4,114.78,179.19,108.38,179.7Z" style="fill: #0D69E3; transform-origin: 104.718px 192.922px;" id="elzgkpuixlpar" class="animable"></path><g id="eliy4a7w5cf3"><path d="M108.38,179.7c-6.26.5-15.09,16.2-15.09,16.2l11.34,10.27a100.54,100.54,0,0,0,9.61-12.64C118.69,186.4,114.78,179.19,108.38,179.7Z" style="fill: rgb(255, 255, 255); opacity: 0.6; transform-origin: 104.718px 192.922px;" class="animable" id="el2mj3abjv99j"></path></g><g id="el1lrebiqoqwsh"><path d="M111.58,191l-7.49,14.66.53.49s2.9-3.17,6.13-7.54Z" style="opacity: 0.2; transform-origin: 107.835px 198.575px;" class="animable" id="elr72lfynhp4"></path></g><path d="M139.75,214.9c-1.13,7.26-2.92,16.24-5.67,27.3L99.25,237c.32-5,5.65-27.29,4.6-51.22a5.82,5.82,0,0,1,5.94-6.09c1.72,0,3.61.13,5.47.31a132.4,132.4,0,0,1,14.81,2.2,67.16,67.16,0,0,1,9.82,3.31s2.5,3.67,1.15,18.94C140.77,207.48,140.36,210.93,139.75,214.9Z" style="fill: #0D69E3; transform-origin: 120.345px 210.944px;" id="el5g10o9ksxgk" class="animable"></path><g id="elloak4c9yh4r"><path d="M139.75,214.9c-1.13,7.26-2.92,16.24-5.67,27.3L99.25,237c.32-5,5.65-27.29,4.6-51.22a5.82,5.82,0,0,1,5.94-6.09c1.72,0,3.61.13,5.47.31a132.4,132.4,0,0,1,14.81,2.2,67.16,67.16,0,0,1,9.82,3.31s2.5,3.67,1.15,18.94C140.77,207.48,140.36,210.93,139.75,214.9Z" style="fill: rgb(255, 255, 255); opacity: 0.6; transform-origin: 120.345px 210.944px;" class="animable" id="eloggy3visxc"></path></g><g id="elb8wh8wcicbh"><path d="M139.75,214.9c-2.83-1.79-5.48-10-4.29-14.33l5.58,3.9C140.77,207.48,140.36,210.93,139.75,214.9Z" style="opacity: 0.2; transform-origin: 138.104px 207.735px;" class="animable" id="elj4l3ay3dnxf"></path></g><path d="M131.92,190c-1.8,6,9.1,23.67,9.1,23.67l13-6.8a73.81,73.81,0,0,0-7.64-15.76C141.17,183.44,134,183.22,131.92,190Z" style="fill: #0D69E3; transform-origin: 142.87px 199.397px;" id="el0yjeg90knoek" class="animable"></path><g id="eld72582xvxl9"><path d="M131.92,190c-1.8,6,9.1,23.67,9.1,23.67l13-6.8a73.81,73.81,0,0,0-7.64-15.76C141.17,183.44,134,183.22,131.92,190Z" style="fill: rgb(255, 255, 255); opacity: 0.6; transform-origin: 142.87px 199.397px;" class="animable" id="el1skem0asjul"></path></g><g id="elu93egwwyfb"><polygon points="130.25 393.9 130.22 401.76 123.64 401.76 123.67 393.9 130.25 393.9" style="opacity: 0.2; transform-origin: 126.945px 397.83px;" class="animable" id="elxuodgrrdyh"></polygon></g><g id="el6qsp15vsks4"><polygon points="77.79 389.35 83.96 390.77 81.28 398.55 75.12 397.12 77.79 389.35" style="opacity: 0.2; transform-origin: 79.54px 393.95px;" class="animable" id="elnel0p63stcg"></polygon></g><path d="M121.65,156.44c-1.91,6.27-3.34,9.83-1.46,14.23a8.49,8.49,0,0,0,15,1.42c3.34-5,5.9-14.38.91-19.27A8.58,8.58,0,0,0,121.65,156.44Z" style="fill: rgb(255, 139, 123); transform-origin: 129.103px 163.077px;" id="elccedq7ofk" class="animable"></path><path d="M131.72,163.33c-.75,3.21-2.7,9-7.5,9.67-2.68.37-7.14-.42-7.55-2.58s1.25-1.87.83-3.64-2.61-8-.12-12.36c-3.46.29-1.09-4.84,5.12-6-1.92-.75-1-6,8.58-3.5,4.48,1.15,7.81,2.91,8.21,5.32,4.08,1.72,5.16,6.05,2.63,7.63s-6.19-.2-6.19-.2S137.46,166.83,131.72,163.33Z" style="fill: rgb(38, 50, 56); transform-origin: 129.53px 158.669px;" id="el5wvj8bf44p6" class="animable"></path><path d="M129.11,162.84a5.92,5.92,0,0,0,1.24,4c1.19,1.52,1.59,1.53,2.08-.16.45-1.52,1.54-4.92-.05-5.82S129.25,161.09,129.11,162.84Z" style="fill: rgb(255, 139, 123); transform-origin: 131.157px 164.254px;" id="el9jqiwcbc6jm" class="animable"></path><path d="M121.73,240.36S116.32,292,113,310.84c-3.7,20.64-28.28,87-28.28,87L73,394.94c6-23,14.89-65.83,20.3-82.23,4.08-24.93,0-56.27,6-75.69Z" style="fill: rgb(38, 50, 56); transform-origin: 97.365px 317.43px;" id="elwtlwhobkc1" class="animable"></path><path d="M87.45,394s-2.16,4.23-2.16,4.23l-13.16-3.31,1.09-4Z" style="fill: #0D69E3; transform-origin: 79.79px 394.575px;" id="el4tqsvgwqzt" class="animable"></path><g id="el53lhr7v2ons"><path d="M118.39,260.5a2.89,2.89,0,0,1,1.13,0c-1.73,15.42-4.19,36-6.13,47.81C111.77,291.15,110.27,262.1,118.39,260.5Z" style="opacity: 0.2; transform-origin: 115.816px 284.377px;" class="animable" id="elpa3w3ybu9xd"></path></g><path d="M134.08,242.2s2.73,55.18,3.13,75.25c.41,20.88-4.59,82.79-4.59,82.79H121.46s-4.21-57.41-1.94-85.41c-2.69-21.33-8.33-76-8.33-76Z" style="fill: rgb(38, 50, 56); transform-origin: 124.212px 319.535px;" id="el1w8xkhmeuah" class="animable"></path><path d="M174.35,232.3a12.13,12.13,0,0,0-5.34.76l-.81,1.34a2.05,2.05,0,0,0,1.14,3l3.91,1.25,1.91.58a2,2,0,0,0,2.22-.75l.82-1.14a2,2,0,0,0-.29-2.68l-1.76-1.59A3.11,3.11,0,0,0,174.35,232.3Z" style="fill: rgb(255, 139, 123); transform-origin: 173.249px 235.789px;" id="elhvr22263drc" class="animable"></path><path d="M134.59,395.79s-.45,4.63-.45,4.63H120.57l-.52-4.13Z" style="fill: #0D69E3; transform-origin: 127.32px 398.105px;" id="eljkppammoctp" class="animable"></path></g><defs>     <filter id="active" height="200%">         <feMorphology in="SourceAlpha" result="DILATED" operator="dilate" radius="2"></feMorphology>                <feFlood flood-color="#32DFEC" flood-opacity="1" result="PINK"></feFlood>        <feComposite in="PINK" in2="DILATED" operator="in" result="OUTLINE"></feComposite>        <feMerge>            <feMergeNode in="OUTLINE"></feMergeNode>            <feMergeNode in="SourceGraphic"></feMergeNode>        </feMerge>    </filter>    <filter id="hover" height="200%">        <feMorphology in="SourceAlpha" result="DILATED" operator="dilate" radius="2"></feMorphology>                <feFlood flood-color="#ff0000" flood-opacity="0.5" result="PINK"></feFlood>        <feComposite in="PINK" in2="DILATED" operator="in" result="OUTLINE"></feComposite>        <feMerge>            <feMergeNode in="OUTLINE"></feMergeNode>            <feMergeNode in="SourceGraphic"></feMergeNode>        </feMerge>            <feColorMatrix type="matrix" values="0   0   0   0   0                0   1   0   0   0                0   0   0   0   0                0   0   0   1   0 "></feColorMatrix>    </filter></defs></svg>