<?xml version="1.0" encoding="UTF-8" standalone="no"?>
<svg
   class="animated"
   id="freepik_stories-hand-coding"
   viewBox="0 0 460.58813 352.77261"
   version="1.1"
   sodipodi:docname="coding-animate.svg"
   width="460.58813"
   height="352.77261"
   inkscape:version="1.1.2 (b8e25be8, 2022-02-05)"
   xmlns:inkscape="http://www.inkscape.org/namespaces/inkscape"
   xmlns:sodipodi="http://sodipodi.sourceforge.net/DTD/sodipodi-0.dtd"
   xmlns="http://www.w3.org/2000/svg"
   xmlns:svg="http://www.w3.org/2000/svg">
  <sodipodi:namedview
     id="namedview1114"
     pagecolor="#ffffff"
     bordercolor="#666666"
     borderopacity="1.0"
     inkscape:pageshadow="2"
     inkscape:pageopacity="0.0"
     inkscape:pagecheckerboard="0"
     showgrid="false"
     inkscape:zoom="0.42675279"
     inkscape:cx="310.48421"
     inkscape:cy="467.48377"
     inkscape:window-width="1399"
     inkscape:window-height="847"
     inkscape:window-x="0"
     inkscape:window-y="25"
     inkscape:window-maximized="0"
     inkscape:current-layer="freepik_stories-hand-coding"
     fit-margin-top="0"
     fit-margin-left="0"
     fit-margin-right="0"
     fit-margin-bottom="0" />
  <style
     id="style824">svg#freepik_stories-hand-coding:not(.animated) .animable {opacity: 0;}svg#freepik_stories-hand-coding.animated #freepik--program-icons--inject-18 {animation: 1.5s Infinite  linear floating;animation-delay: 0s;}svg#freepik_stories-hand-coding.animated #freepik--Tabs--inject-18 {animation: 3s Infinite  linear floating;animation-delay: 0s;}svg#freepik_stories-hand-coding.animated #freepik--speech-bubble--inject-18 {animation: 6s Infinite  linear floating;animation-delay: 0s;}            @keyframes floating {                0% {                    opacity: 1;                    transform: translateY(0px);                }                50% {                    transform: translateY(-10px);                }                100% {                    opacity: 1;                    transform: translateY(0px);                }            }        .animator-hidden { display: none; }</style>
  <g
     id="freepik--background-complete--inject-18"
     class="animable animator-hidden"
     transform="translate(-19.384292,-43.801188)">
    <rect
       y="382.39999"
       width="500"
       height="0.25"
       style="fill:#ebebeb"
       id="eludsyiktnpgt"
       class="animable"
       x="0" />
    <rect
       x="416.78"
       y="398.48999"
       width="33.119999"
       height="0.25"
       style="fill:#ebebeb"
       id="el4ohv0wm7hnk"
       class="animable" />
    <rect
       x="322.53"
       y="401.20999"
       width="8.6899996"
       height="0.25"
       style="fill:#ebebeb"
       id="el3gdb65vn3iy"
       class="animable" />
    <rect
       x="396.59"
       y="389.20999"
       width="19.190001"
       height="0.25"
       style="fill:#ebebeb"
       id="elwn6syyot8ca"
       class="animable" />
    <rect
       x="52.459999"
       y="390.89001"
       width="43.189999"
       height="0.25"
       style="fill:#ebebeb"
       id="elbakrfhxqmun"
       class="animable" />
    <rect
       x="104.56"
       y="390.89001"
       width="6.3299999"
       height="0.25"
       style="fill:#ebebeb"
       id="el8lgg8v2m8pu"
       class="animable" />
    <rect
       x="131.47"
       y="395.10999"
       width="93.68"
       height="0.25"
       style="fill:#ebebeb"
       id="elbxquteovf3j"
       class="animable" />
    <path
       d="M 237,337.8 H 43.91 a 5.71,5.71 0 0 1 -5.7,-5.71 V 60.66 A 5.71,5.71 0 0 1 43.91,55 H 237 a 5.71,5.71 0 0 1 5.71,5.71 V 332.09 A 5.71,5.71 0 0 1 237,337.8 Z M 43.91,55.2 a 5.46,5.46 0 0 0 -5.45,5.46 v 271.43 a 5.46,5.46 0 0 0 5.45,5.46 H 237 a 5.47,5.47 0 0 0 5.46,-5.46 V 60.66 A 5.47,5.47 0 0 0 237,55.2 Z"
       style="fill:#ebebeb"
       id="el0u9tqh1hejwe"
       class="animable" />
    <path
       d="m 453.31,337.8 h -193.1 a 5.72,5.72 0 0 1 -5.71,-5.71 V 60.66 A 5.72,5.72 0 0 1 260.21,55 h 193.1 a 5.71,5.71 0 0 1 5.69,5.66 v 271.43 a 5.71,5.71 0 0 1 -5.69,5.71 z M 260.21,55.2 a 5.47,5.47 0 0 0 -5.46,5.46 v 271.43 a 5.47,5.47 0 0 0 5.46,5.46 h 193.1 a 5.47,5.47 0 0 0 5.46,-5.46 V 60.66 a 5.47,5.47 0 0 0 -5.46,-5.46 z"
       style="fill:#ebebeb"
       id="el47p5swbxzw8"
       class="animable" />
    <path
       d="m 156.52,292.52 -13.85,11.58 19.73,28.68 15.76,-8.8 a 93.08,93.08 0 0 0 29.19,19 l -1.6,17.93 34.25,6.31 4.91,-17.32 a 92.71,92.71 0 0 0 34,-7.3 l 11.58,13.85 28.68,-19.73 -8.78,-15.72 a 92.92,92.92 0 0 0 19,-29.18 l 17.92,1.6 6.33,-34.23 -17.32,-4.92 a 93,93 0 0 0 -7.3,-34 l 13.85,-11.58 -19.73,-28.67 -15.77,8.79 a 93.07,93.07 0 0 0 -29.18,-19 l 1.6,-17.93 -34.23,-6.32 -4.91,17.31 a 93.17,93.17 0 0 0 -34,7.3 L 195,156.26 166.34,176 l 8.79,15.76 a 93.12,93.12 0 0 0 -19,29.19 l -17.93,-1.6 -6.32,34.23 17.31,4.91 a 92.92,92.92 0 0 0 7.33,34.03 z m 39.91,-44.73 a 47.12,47.12 0 1 1 37.77,54.9 47.12,47.12 0 0 1 -37.77,-54.9 z"
       style="fill:#f0f0f0"
       id="el9eooxrfwcf7"
       class="animable" />
    <path
       d="m 387.38,274.83 10.82,2 1.55,-5.47 a 29.54,29.54 0 0 0 10.76,-2.31 l 3.66,4.38 9.07,-6.24 -2.78,-5 a 29.26,29.26 0 0 0 6,-9.22 l 5.67,0.5 2,-10.81 -5.48,-1.56 a 29.22,29.22 0 0 0 -2.31,-10.76 l 4.38,-3.66 -6.24,-9.06 -5,2.78 a 29.57,29.57 0 0 0 -9.22,-6 l 0.5,-5.66 -10.82,-2 -1.55,5.47 a 29.58,29.58 0 0 0 -10.76,2.31 l -3.63,-4.38 -9.07,6.24 2.78,5 a 29.26,29.26 0 0 0 -6,9.22 l -5.67,-0.5 -2,10.81 5.47,1.56 a 29.42,29.42 0 0 0 2.31,10.76 l -4.38,3.66 6.24,9.06 5,-2.78 a 29.3,29.3 0 0 0 9.23,6 z m -2.95,-35.75 a 14.9,14.9 0 1 1 11.94,17.35 14.91,14.91 0 0 1 -11.94,-17.35 z"
       style="fill:#f0f0f0"
       id="el0kpbxmrlwy"
       class="animable" />
    <path
       d="m 83.7,305.64 8.24,1.53 1.19,-4.17 a 22.62,22.62 0 0 0 8.19,-1.76 l 2.79,3.33 6.91,-4.75 -2.12,-3.82 a 22.34,22.34 0 0 0 4.57,-7 l 4.32,0.38 1.52,-8.24 -4.17,-1.14 a 22.27,22.27 0 0 0 -1.76,-8.2 l 3.34,-2.79 -4.76,-6.9 -3.79,2.12 a 22.54,22.54 0 0 0 -7,-4.58 l 0.39,-4.31 -8.25,-1.53 -1.18,4.17 a 22.68,22.68 0 0 0 -8.2,1.76 l -2.78,-3.33 -6.91,4.75 2.12,3.8 a 22.29,22.29 0 0 0 -4.57,7 l -4.32,-0.38 -1.52,8.24 4.14,1.18 a 22.27,22.27 0 0 0 1.76,8.2 l -3.34,2.8 4.75,6.9 3.8,-2.11 a 22.57,22.57 0 0 0 7,4.57 z m -2.24,-27.23 a 11.34,11.34 0 1 1 9.09,13.22 11.35,11.35 0 0 1 -9.09,-13.22 z"
       style="fill:#f0f0f0"
       id="elcb6o8ag59kn"
       class="animable" />
    <path
       d="m 230.85,122 6.24,1.15 L 238,120 a 16.73,16.73 0 0 0 6.21,-1.33 l 2.11,2.53 5.22,-3.6 -1.6,-2.87 a 17,17 0 0 0 3.46,-5.32 l 3.26,0.29 1.15,-6.23 -3.15,-0.9 a 17.08,17.08 0 0 0 -1.33,-6.2 l 2.52,-2.11 -3.59,-5.22 -2.87,1.6 a 17,17 0 0 0 -5.32,-3.46 l 0.29,-3.26 -6.24,-1.16 -0.89,3.16 a 16.64,16.64 0 0 0 -6.2,1.33 l -2.11,-2.53 -5.23,3.6 1.61,2.87 a 16.85,16.85 0 0 0 -3.46,5.32 l -3.27,-0.29 -1.15,6.23 3.15,0.9 a 17,17 0 0 0 1.33,6.2 l -2.52,2.11 3.6,5.22 2.87,-1.6 a 16.87,16.87 0 0 0 5.31,3.46 z m -1.69,-20.61 a 8.58,8.58 0 1 1 6.88,10 8.58,8.58 0 0 1 -6.88,-9.98 z"
       style="fill:#f0f0f0"
       id="elhamfqkzn2y"
       class="animable" />
    <path
       d="m 334.49,172.19 4.16,0.76 0.59,-2.1 a 11.33,11.33 0 0 0 4.14,-0.89 l 1.41,1.69 3.48,-2.4 -1.07,-1.92 a 11.29,11.29 0 0 0 2.31,-3.54 l 2.18,0.19 0.77,-4.16 -2.11,-0.6 a 11.31,11.31 0 0 0 -0.88,-4.13 l 1.68,-1.41 -2.4,-3.48 -1.91,1.07 a 11.45,11.45 0 0 0 -3.55,-2.31 l 0.19,-2.18 -4.16,-0.77 -0.59,2.11 a 11.32,11.32 0 0 0 -4.14,0.88 l -1.41,-1.68 -3.48,2.4 1.07,1.91 a 11.45,11.45 0 0 0 -2.31,3.55 l -2.18,-0.19 -0.76,4.15 2.1,0.6 a 11.13,11.13 0 0 0 0.89,4.14 l -1.69,1.4 2.4,3.49 1.92,-1.07 a 11.29,11.29 0 0 0 3.54,2.31 z m -1.13,-13.75 a 5.73,5.73 0 1 1 4.59,6.67 5.73,5.73 0 0 1 -4.59,-6.67 z"
       style="fill:#f0f0f0"
       id="eltp01sdrje89"
       class="animable" />
    <path
       d="m 142.75,122.07 4.16,0.77 0.59,-2.1 a 11.54,11.54 0 0 0 4.14,-0.89 l 1.41,1.68 3.48,-2.4 -1.07,-1.91 a 11.34,11.34 0 0 0 2.31,-3.55 l 2.18,0.2 0.77,-4.16 -2.11,-0.6 a 11.36,11.36 0 0 0 -0.88,-4.14 l 1.68,-1.4 -2.4,-3.49 -1.92,1.07 a 11.09,11.09 0 0 0 -3.54,-2.3 L 151.74,96.67 147.58,95.9 147,98 a 11.33,11.33 0 0 0 -4.14,0.89 l -1.41,-1.68 -3.45,2.39 1.07,1.92 a 11.34,11.34 0 0 0 -2.31,3.55 l -2.18,-0.2 -0.76,4.16 2.1,0.6 a 11.08,11.08 0 0 0 0.89,4.13 l -1.69,1.41 2.4,3.49 1.92,-1.07 a 11.27,11.27 0 0 0 3.54,2.3 z m -1.13,-13.74 a 5.73,5.73 0 1 1 4.59,6.67 5.73,5.73 0 0 1 -4.59,-6.67 z"
       style="fill:#f0f0f0"
       id="elh4uu1etpwgv"
       class="animable" />
    <path
       d="m 327.62,343.76 a 19.54,19.54 0 0 0 1.55,7.22 l -2.94,2.46 4.19,6.07 3.34,-1.86 a 19.76,19.76 0 0 0 6.19,4 l -0.34,3.8 7.26,1.34 1,-3.67 a 19.94,19.94 0 0 0 7.21,-1.55 l 2.46,2.93 6.08,-4.18 -1.82,-3.32 a 19.68,19.68 0 0 0 4,-6.19 l 3.8,0.34 1.4,-7.25 -3.67,-1 a 19.54,19.54 0 0 0 -1.55,-7.22 l 2.94,-2.45 -4.18,-6.08 -3.39,1.85 a 19.52,19.52 0 0 0 -6.18,-4 l 0.33,-3.81 -7.25,-1.34 -1,3.67 a 20,20 0 0 0 -7.22,1.55 l -2.46,-2.93 -6.08,4.18 1.87,3.34 a 19.7,19.7 0 0 0 -4,6.19 l -3.8,-0.34 -1.36,7.21 z m 10,-2.26 a 10,10 0 1 1 8,11.63 10,10 0 0 1 -7.99,-11.63 z"
       style="fill:#f0f0f0"
       id="elohe4ykxtqr"
       class="animable" />
    <path
       d="m 390.43,300.7 -11.17,4.09 11.17,4.06 V 313 l -16,-6.07 v -4.36 l 16,-6.07 z"
       style="fill:#e0e0e0"
       id="elj4ju5dnalij"
       class="animable" />
    <path
       d="m 402.45,288.28 h 4.67 l -11.07,31.61 h -4.67 z"
       style="fill:#e0e0e0"
       id="elc436bvyk0s"
       class="animable" />
    <path
       d="M 423.7,302.61 V 307 l -16,6.07 v -4.19 l 11.17,-4.06 -11.17,-4.09 v -4.16 z"
       style="fill:#e0e0e0"
       id="elk0vq718w0b"
       class="animable" />
    <path
       d="m 112.84,354.08 c 1.6,0.48 2.34,1.49 2.34,3.9 v 5.57 a 2.29,2.29 0 0 0 2.54,2.58 h 0.63 v 4.25 h -2 c -4.36,0 -6.59,-2.23 -6.59,-6.24 v -6.3 c 0,-1.12 -0.59,-1.64 -1.53,-1.64 h -1.15 V 352 h 1.15 c 0.94,0 1.53,-0.52 1.53,-1.64 V 344 c 0,-4 2.23,-6.23 6.59,-6.23 h 2 V 342 h -0.63 a 2.29,2.29 0 0 0 -2.54,2.58 v 5.57 c 0,2.43 -0.74,3.44 -2.34,3.93 z"
       style="fill:#e0e0e0"
       id="elk4mw37gyako"
       class="animable" />
    <path
       d="m 140.56,352 v 4.25 h -1.15 a 1.43,1.43 0 0 0 -1.54,1.64 v 6.3 c 0,4 -2.23,6.24 -6.58,6.24 h -2 v -4.25 h 0.63 a 2.29,2.29 0 0 0 2.54,-2.58 V 358 c 0,-2.41 0.73,-3.42 2.33,-3.9 -1.6,-0.49 -2.33,-1.5 -2.33,-3.91 V 344.6 A 2.29,2.29 0 0 0 129.9,342 h -0.63 v -4.25 h 2 c 4.35,0 6.58,2.23 6.58,6.23 v 6.31 a 1.43,1.43 0 0 0 1.54,1.64 z"
       style="fill:#e0e0e0"
       id="el31a5k1tfyga"
       class="animable" />
    <path
       d="m 98.49,151.13 c 0,-6.86 5.26,-11.76 12.34,-11.76 a 11.72,11.72 0 0 1 9.35,4 l -3.38,3.11 a 7.31,7.31 0 0 0 -5.71,-2.66 7.28,7.28 0 1 0 0,14.55 7.22,7.22 0 0 0 5.71,-2.7 l 3.38,3.12 a 11.67,11.67 0 0 1 -9.38,4.06 C 103.75,162.88 98.49,158 98.49,151.13 Z"
       style="fill:#e0e0e0"
       id="elvt5r08lkmco"
       class="animable" />
    <path
       d="m 138.31,153.11 h -5.65 v 5.52 h -4.19 v -5.52 h -5.61 v -4 h 5.61 v -5.53 h 4.19 v 5.53 h 5.65 z"
       style="fill:#e0e0e0"
       id="elmvwfdvrztgl"
       class="animable" />
    <path
       d="m 158,153.11 h -5.65 v 5.52 h -4.19 v -5.52 h -5.62 v -4 h 5.62 v -5.53 h 4.19 v 5.53 H 158 Z"
       style="fill:#e0e0e0"
       id="el77vmrga4qtm"
       class="animable" />
    <path
       d="m 182.06,265.63 3.28,-3.94 c 1.39,1.86 2.93,2.81 4.75,2.81 2.38,0 3.62,-1.43 3.62,-4.24 V 248.1 h -9 v -4.75 h 14.87 v 16.58 c 0,6.32 -3.18,9.43 -9.21,9.43 a 10.27,10.27 0 0 1 -8.31,-3.73 z"
       style="fill:#e0e0e0"
       id="elpz13sk182yq"
       class="animable" />
    <path
       d="M 203.14,267.09 205,263 a 13.49,13.49 0 0 0 6.83,1.9 c 2.63,0 3.62,-0.69 3.62,-1.79 0,-3.21 -11.87,0.07 -11.87,-7.78 0,-3.73 3.36,-6.36 9.09,-6.36 a 16.15,16.15 0 0 1 7.57,1.72 l -1.9,4.06 a 11.3,11.3 0 0 0 -5.67,-1.47 c -2.55,0 -3.65,0.81 -3.65,1.83 0,3.36 11.87,0.11 11.87,7.85 0,3.66 -3.39,6.25 -9.28,6.25 a 16.84,16.84 0 0 1 -8.47,-2.12 z"
       style="fill:#e0e0e0"
       id="elkgszfgrqsg"
       class="animable" />
  </g>
  <g
     id="freepik--Shadow--inject-18"
     class="animable animator-hidden"
     transform="translate(-19.384292,-43.801188)">
    <ellipse
       id="freepik--path--inject-18"
       cx="250"
       cy="416.23999"
       rx="193.89"
       ry="11.32"
       style="fill:#f5f5f5"
       class="animable" />
  </g>
  <g
     id="freepik--program-icons--inject-18"
     class="animable"
     transform="matrix(1.2017642,0,0,1.0945134,-71.168476,-101.80069)">
    <rect
       x="293.82999"
       y="93.010002"
       width="34.369999"
       height="34.369999"
       rx="2.27"
       style="fill:#0d69e3"
       id="elcwhin5fogem"
       class="animable" />
    <g
       id="el2gl6nvyerz5">
      <g
         style="opacity:0.4;isolation:isolate"
         class="animable"
         id="el1y1f8u2kjce">
        <rect
           x="293.82999"
           y="93.010002"
           width="34.369999"
           height="34.369999"
           rx="2.27"
           style="fill:#ffffff"
           id="elre4gjv8yfwq"
           class="animable" />
      </g>
    </g>
    <path
       d="m 306.4,108.38 -6,2.19 6,2.17 V 115 l -8.52,-3.25 v -2.32 l 8.52,-3.25 z"
       style="fill:#ffffff"
       id="el8af46vnl2j3"
       class="animable" />
    <path
       d="m 312.82,101.76 h 2.49 l -5.92,16.87 h -2.49 z"
       style="fill:#ffffff"
       id="el7q7atgr1z5a"
       class="animable" />
    <path
       d="m 324.15,109.41 v 2.32 l -8.52,3.27 v -2.24 l 6,-2.17 -6,-2.19 v -2.22 z"
       style="fill:#ffffff"
       id="elxav3zmd981f"
       class="animable" />
    <path
       d="M 301.4,133.66 V 142 h -1.93 v -3.43 h -3.8 V 142 h -1.93 v -8.35 h 1.93 V 137 h 3.8 v -3.29 z"
       style="fill:#263238"
       id="el4a4du5i6sfa"
       class="animable" />
    <path
       d="m 305.12,135.23 h -2.68 v -1.57 h 7.28 v 1.57 h -2.67 V 142 h -1.93 z"
       style="fill:#263238"
       id="elu50u8kt5v6"
       class="animable" />
    <path
       d="m 318.37,142 v -5 l -2.46,4.13 H 315 l -2.45,-4 V 142 h -1.81 v -8.35 h 1.6 l 3.12,5.19 3.08,-5.19 h 1.59 V 142 Z"
       style="fill:#263238"
       id="elz5re1cvzpb"
       class="animable" />
    <path
       d="m 322.17,133.66 h 1.93 v 6.77 h 4.19 V 142 h -6.12 z"
       style="fill:#263238"
       id="eli6zpcslxex"
       class="animable" />
    <g
       id="el2detj6jp6s4">
      <g
         style="opacity:0.6;isolation:isolate"
         class="animable"
         id="elrmjcf3es19">
        <path
           d="M 301.4,133.66 V 142 h -1.93 v -3.43 h -3.8 V 142 h -1.93 v -8.35 h 1.93 V 137 h 3.8 v -3.29 z"
           style="fill:#ffffff"
           id="el2qv7tgyw85n"
           class="animable" />
        <path
           d="m 305.12,135.23 h -2.68 v -1.57 h 7.28 v 1.57 h -2.67 V 142 h -1.93 z"
           style="fill:#ffffff"
           id="elb7369jyqr7q"
           class="animable" />
        <path
           d="m 318.37,142 v -5 l -2.46,4.13 H 315 l -2.45,-4 V 142 h -1.81 v -8.35 h 1.6 l 3.12,5.19 3.08,-5.19 h 1.59 V 142 Z"
           style="fill:#ffffff"
           id="elmj765e8ljl7"
           class="animable" />
        <path
           d="m 322.17,133.66 h 1.93 v 6.77 h 4.19 V 142 h -6.12 z"
           style="fill:#ffffff"
           id="eltfldhjp96ah"
           class="animable" />
      </g>
    </g>
    <rect
       x="367.34"
       y="111.33"
       width="34.369999"
       height="34.369999"
       rx="2.27"
       style="fill:#0d69e3"
       id="elh7dzdwpoa9"
       class="animable" />
    <g
       id="eljhromdyad">
      <g
         style="opacity:0.4;isolation:isolate"
         class="animable"
         id="ele3edm5zrfeu">
        <rect
           x="367.34"
           y="111.33"
           width="34.369999"
           height="34.369999"
           rx="2.27"
           style="fill:#ffffff"
           id="elwusncggfi3j"
           class="animable" />
      </g>
    </g>
    <path
       d="m 378.89,128.51 c 0.82,0.25 1.2,0.77 1.2,2 v 2.87 a 1.18,1.18 0 0 0 1.31,1.32 h 0.32 v 2.19 h -1 c -2.24,0 -3.38,-1.15 -3.38,-3.21 v -3.24 a 0.74,0.74 0 0 0 -0.79,-0.84 h -0.59 v -2.19 h 0.59 a 0.74,0.74 0 0 0 0.79,-0.84 v -3.24 c 0,-2.06 1.14,-3.21 3.38,-3.21 h 1 v 2.19 h -0.32 a 1.18,1.18 0 0 0 -1.31,1.32 v 2.87 c 0,1.24 -0.38,1.76 -1.2,2.01 z"
       style="fill:#ffffff"
       id="elwa8tlaz5i6o"
       class="animable" />
    <path
       d="m 393.13,127.42 v 2.19 h -0.59 a 0.74,0.74 0 0 0 -0.79,0.84 v 3.24 c 0,2.06 -1.15,3.21 -3.38,3.21 h -1 v -2.19 h 0.32 a 1.18,1.18 0 0 0 1.31,-1.32 v -2.87 c 0,-1.24 0.37,-1.76 1.2,-2 -0.83,-0.25 -1.2,-0.77 -1.2,-2 v -2.87 a 1.18,1.18 0 0 0 -1.31,-1.32 h -0.32 v -2.19 h 1 c 2.23,0 3.38,1.15 3.38,3.21 v 3.24 a 0.74,0.74 0 0 0 0.79,0.84 z"
       style="fill:#ffffff"
       id="elxh218pqew6"
       class="animable" />
    <path
       d="m 373,156.28 a 4.6,4.6 0 0 1 8,-2.84 l -1.24,1.15 a 2.68,2.68 0 0 0 -2.1,-1 2.68,2.68 0 1 0 0,5.35 2.69,2.69 0 0 0 2.1,-1 l 1.24,1.14 a 4.59,4.59 0 0 1 -8,-2.83 z"
       style="fill:#263238"
       id="elsij223e3bpm"
       class="animable" />
    <path
       d="m 381.52,159.64 0.65,-1.46 a 5,5 0 0 0 2.76,0.87 c 1.14,0 1.61,-0.38 1.61,-0.89 0,-1.57 -4.86,-0.49 -4.86,-3.59 0,-1.42 1.15,-2.61 3.52,-2.61 a 5.68,5.68 0 0 1 2.9,0.74 l -0.59,1.47 a 4.75,4.75 0 0 0 -2.32,-0.65 c -1.14,0 -1.59,0.42 -1.59,0.95 0,1.54 4.86,0.48 4.86,3.54 0,1.4 -1.16,2.59 -3.54,2.59 a 6,6 0 0 1 -3.4,-0.96 z"
       style="fill:#263238"
       id="eloae88gi9ebc"
       class="animable" />
    <path
       d="m 389.13,159.64 0.66,-1.46 a 4.92,4.92 0 0 0 2.76,0.87 c 1.14,0 1.61,-0.38 1.61,-0.89 0,-1.57 -4.86,-0.49 -4.86,-3.59 0,-1.42 1.15,-2.61 3.52,-2.61 a 5.71,5.71 0 0 1 2.9,0.74 l -0.6,1.47 a 4.69,4.69 0 0 0 -2.31,-0.65 c -1.15,0 -1.59,0.42 -1.59,0.95 0,1.54 4.86,0.48 4.86,3.54 0,1.4 -1.16,2.59 -3.55,2.59 a 6,6 0 0 1 -3.4,-0.96 z"
       style="fill:#263238"
       id="eltxkbg227o7q"
       class="animable" />
    <g
       id="el6v5hq5u0fwf">
      <g
         style="opacity:0.6;isolation:isolate"
         class="animable"
         id="elxjfpelfpy5f">
        <path
           d="m 373,156.28 a 4.6,4.6 0 0 1 8,-2.84 l -1.24,1.15 a 2.68,2.68 0 0 0 -2.1,-1 2.68,2.68 0 1 0 0,5.35 2.69,2.69 0 0 0 2.1,-1 l 1.24,1.14 a 4.59,4.59 0 0 1 -8,-2.83 z"
           style="fill:#ffffff"
           id="elf2srxqg7jvu"
           class="animable" />
        <path
           d="m 381.52,159.64 0.65,-1.46 a 5,5 0 0 0 2.76,0.87 c 1.14,0 1.61,-0.38 1.61,-0.89 0,-1.57 -4.86,-0.49 -4.86,-3.59 0,-1.42 1.15,-2.61 3.52,-2.61 a 5.68,5.68 0 0 1 2.9,0.74 l -0.59,1.47 a 4.75,4.75 0 0 0 -2.32,-0.65 c -1.14,0 -1.59,0.42 -1.59,0.95 0,1.54 4.86,0.48 4.86,3.54 0,1.4 -1.16,2.59 -3.54,2.59 a 6,6 0 0 1 -3.4,-0.96 z"
           style="fill:#ffffff"
           id="eluzpcynqpdf"
           class="animable" />
        <path
           d="m 389.13,159.64 0.66,-1.46 a 4.92,4.92 0 0 0 2.76,0.87 c 1.14,0 1.61,-0.38 1.61,-0.89 0,-1.57 -4.86,-0.49 -4.86,-3.59 0,-1.42 1.15,-2.61 3.52,-2.61 a 5.71,5.71 0 0 1 2.9,0.74 l -0.6,1.47 a 4.69,4.69 0 0 0 -2.31,-0.65 c -1.15,0 -1.59,0.42 -1.59,0.95 0,1.54 4.86,0.48 4.86,3.54 0,1.4 -1.16,2.59 -3.55,2.59 a 6,6 0 0 1 -3.4,-0.96 z"
           style="fill:#ffffff"
           id="elidqqbvnueri"
           class="animable" />
      </g>
    </g>
  </g>
  <g
     id="freepik--Tabs--inject-18"
     class="animable"
     transform="matrix(1.2017642,0,0,1.0945134,-71.168476,-101.80069)">
    <rect
       x="148.55"
       y="107.98"
       width="122.51"
       height="88.68"
       id="el4ke7brnhfv"
       class="animable" />
    <g
       id="el70m1p62lugt">
      <rect
         x="148.55"
         y="107.98"
         width="122.51"
         height="88.68"
         style="opacity:0.9;isolation:isolate;fill:#ffffff"
         class="animable"
         id="elzdshtq1nfef" />
    </g>
    <g
       id="eldvgd5nfz6j4">
      <rect
         x="148.55"
         y="107.98"
         width="17.059999"
         height="88.68"
         style="opacity:0.1"
         class="animable"
         id="elbhq7m0sx0m" />
    </g>
    <rect
       x="148.55"
       y="107.98"
       width="122.51"
       height="8.29"
       style="fill:#0d69e3"
       id="elhd1m2s0pq"
       class="animable" />
    <g
       id="el57d9bujvwr6">
      <g
         style="opacity:0.2"
         class="animable"
         id="ele5vn9kuo58m">
        <path
           d="M 197.71,128.78 H 175.4 a 1,1 0 0 1 0,-2 h 22.31 a 1,1 0 0 1 0,2 z"
           id="el4du45y49orv"
           class="animable" />
        <path
           d="m 247,128.78 h -43.35 a 1,1 0 0 1 0,-2 H 247 a 1,1 0 0 1 0,2 z"
           id="el39j0fgicok8"
           class="animable" />
        <path
           d="M 236.68,135.31 H 178.4 a 1,1 0 0 1 0,-2 h 58.28 a 1,1 0 0 1 0,2 z"
           id="el45msqn5f9an"
           class="animable" />
        <path
           d="M 212.94,141.83 H 175.4 a 1,1 0 0 1 0,-2 h 37.54 a 1,1 0 0 1 0,2 z"
           id="el6ocxkhz1odl"
           class="animable" />
        <path
           d="m 247,141.83 h -26.9 a 1,1 0 0 1 0,-2 H 247 a 1,1 0 0 1 0,2 z"
           id="el6xvx9p826p9"
           class="animable" />
        <path
           d="M 196.13,148.36 H 175.4 a 1,1 0 1 1 0,-2 h 20.73 a 1,1 0 0 1 0,2 z"
           id="elzxnq5k8yuu"
           class="animable" />
        <path
           d="m 235.49,148.36 h -32.64 a 1,1 0 0 1 0,-2 h 32.64 a 1,1 0 0 1 0,2 z"
           id="elme00tg3ge6p"
           class="animable" />
        <path
           d="M 206.29,154.89 H 178.4 a 1,1 0 1 1 0,-2 h 27.89 a 1,1 0 0 1 0,2 z"
           id="elqdx6wda4ynj"
           class="animable" />
        <path
           d="M 209.78,161.42 H 178.4 a 1,1 0 0 1 0,-2 h 31.38 a 1,1 0 0 1 0,2 z"
           id="el6huofpz0rtg"
           class="animable" />
        <path
           d="m 247,161.42 h -32 a 1,1 0 0 1 0,-2 h 32 a 1,1 0 0 1 0,2 z"
           id="elburus1ac7pk"
           class="animable" />
        <path
           d="m 193.36,167.94 h -18 a 1,1 0 0 1 0,-2 h 18 a 1,1 0 0 1 0,2 z"
           id="eliz9vyj7ued"
           class="animable" />
        <path
           d="m 247,167.94 h -47.51 a 1,1 0 0 1 0,-2 H 247 a 1,1 0 0 1 0,2 z"
           id="elgjrrdwecots"
           class="animable" />
        <path
           d="M 209.58,174.47 H 178.4 a 1,1 0 0 1 0,-2 h 31.18 a 1,1 0 0 1 0,2 z"
           id="elhphv5om555e"
           class="animable" />
        <path
           d="m 234.11,174.47 h -20.18 a 1,1 0 0 1 0,-2 h 20.18 a 1,1 0 0 1 0,2 z"
           id="el4u78o1bi2nj"
           class="animable" />
        <path
           d="M 214.29,181 H 178.4 a 1,1 0 1 1 0,-2 h 35.89 a 1,1 0 0 1 0,2 z"
           id="elqrqkp73zzw"
           class="animable" />
      </g>
    </g>
    <g
       id="elx563kzl9co">
      <circle
         cx="265.79001"
         cy="112.18"
         r="1.71"
         style="opacity:0.4;fill:#ffffff"
         class="animable"
         id="elu5x0w6n1yrm" />
    </g>
    <g
       id="elnmam37n7iqj">
      <circle
         cx="259.78"
         cy="112.18"
         r="1.71"
         style="opacity:0.4;fill:#ffffff"
         class="animable"
         id="el6aozaen3dmm" />
    </g>
    <g
       id="elky8ugzcnr6">
      <circle
         cx="253.78"
         cy="112.18"
         r="1.71"
         style="opacity:0.4;fill:#ffffff"
         class="animable"
         id="elmv2jkpe6tab" />
    </g>
    <g
       id="elyoyl71y1c5">
      <g
         style="opacity:0.2"
         class="animable"
         id="elps04qf5a0w">
        <path
           d="m 157.38,128.78 v 0 a 1,1 0 0 1 0,-2 1,1 0 0 1 1,1 1,1 0 0 1 -1,1 z"
           id="elrzhmel36tjk"
           class="animable" />
        <path
           d="m 157.38,135.31 v 0 a 1,1 0 1 1 0,-2 1,1 0 0 1 1,1 1,1 0 0 1 -1,1 z"
           id="el9372k6lkijh"
           class="animable" />
        <path
           d="m 157.38,141.83 v 0 a 1,1 0 0 1 0,-2 1,1 0 0 1 1,1 1,1 0 0 1 -1,1 z"
           id="elx35ru62pfg7"
           class="animable" />
        <path
           d="m 157.38,148.36 v 0 a 1,1 0 0 1 0,-2 1,1 0 0 1 1,1 1,1 0 0 1 -1,1 z"
           id="eld738n7s6jr"
           class="animable" />
        <path
           d="m 157.38,154.89 v 0 a 1,1 0 0 1 0,-2 1,1 0 0 1 1,1 1,1 0 0 1 -1,1 z"
           id="elgr3yxnfwuuv"
           class="animable" />
        <path
           d="m 157.38,161.42 v 0 a 1,1 0 0 1 0,-2 1,1 0 0 1 1,1 1,1 0 0 1 -1,1 z"
           id="elxwl3c4kgkp"
           class="animable" />
        <path
           d="m 157.38,167.94 v 0 a 1,1 0 1 1 0,-2 1,1 0 0 1 1,1 1,1 0 0 1 -1,1 z"
           id="el93jrqr016l4"
           class="animable" />
        <path
           d="m 157.38,174.47 v 0 a 1,1 0 0 1 0,-2 1,1 0 0 1 1,1 1,1 0 0 1 -1,1 z"
           id="eljrro25xgj3f"
           class="animable" />
        <path
           d="m 157.38,181 v 0 a 1,1 0 0 1 0,-2 1,1 0 0 1 1,1 1,1 0 0 1 -1,1 z"
           id="elbvgu5saywvp"
           class="animable" />
      </g>
    </g>
    <rect
       x="221.49001"
       y="180.34"
       width="160.53"
       height="102.79"
       style="fill:#263238"
       id="elbqfle3jnwm"
       class="animable" />
    <g
       id="el7zfilgahva">
      <rect
         x="221.49001"
         y="180.34"
         width="160.53"
         height="102.79"
         style="opacity:0.9;isolation:isolate;fill:#ffffff"
         class="animable"
         id="elj5q34301vd" />
    </g>
    <g
       id="elx71p51zk47k">
      <rect
         x="221.49001"
         y="180.34"
         width="25.040001"
         height="102.79"
         style="opacity:0.1"
         class="animable"
         id="el7ir6s0vbfxg" />
    </g>
    <rect
       x="221.49001"
       y="180.34"
       width="160.53"
       height="8.29"
       style="fill:#0d69e3"
       id="elwtk8658enc"
       class="animable" />
    <path
       d="m 232.83,197.72 -2.66,1 2.66,1 v 1 l -3.8,-1.45 v -1 l 3.8,-1.44 z"
       style="fill:#ffffff"
       id="el9iad6qy76ks"
       class="animable" />
    <path
       d="m 235.7,194.76 h 1.11 l -2.64,7.53 h -1.11 z"
       style="fill:#ffffff"
       id="elo78nx7pn9ds"
       class="animable" />
    <path
       d="m 240.76,198.17 v 1 l -3.8,1.45 v -1 l 2.66,-1 -2.66,-1 v -1 z"
       style="fill:#ffffff"
       id="el192l2abagsk"
       class="animable" />
    <g
       id="elrbh823z40db">
      <g
         style="opacity:0.2"
         class="animable"
         id="eltdg0drxrcwo">
        <path
           d="m 240.2,209.15 h -10.88 a 1,1 0 0 1 0,-2 h 10.88 a 1,1 0 0 1 0,2 z"
           id="elahzu85zxdwt"
           class="animable" />
        <path
           d="m 240.2,215.67 h -10.88 a 1,1 0 0 1 0,-2 h 10.88 a 1,1 0 0 1 0,2 z"
           id="elclzdyogq6kc"
           class="animable" />
        <path
           d="m 240.2,222.2 h -10.88 a 1,1 0 0 1 0,-2 h 10.88 a 1,1 0 0 1 0,2 z"
           id="elp10byhpc55s"
           class="animable" />
        <path
           d="m 240.2,228.73 h -10.88 a 1,1 0 0 1 0,-2 h 10.88 a 1,1 0 0 1 0,2 z"
           id="elz5wam17jiq8"
           class="animable" />
        <path
           d="m 240.2,235.26 h -10.88 a 1,1 0 0 1 0,-2 h 10.88 a 1,1 0 0 1 0,2 z"
           id="elw8vkmfxvf2a"
           class="animable" />
        <path
           d="m 240.2,241.78 h -10.88 a 1,1 0 0 1 0,-2 h 10.88 a 1,1 0 0 1 0,2 z"
           id="el3tlmql6nmr"
           class="animable" />
        <path
           d="m 240.2,248.31 h -10.88 a 1,1 0 0 1 0,-2 h 10.88 a 1,1 0 0 1 0,2 z"
           id="el8s1f43k930x"
           class="animable" />
        <path
           d="m 240.2,254.84 h -10.88 a 1,1 0 0 1 0,-2 h 10.88 a 1,1 0 0 1 0,2 z"
           id="eltyi62gyt69"
           class="animable" />
        <path
           d="m 240.2,261.37 h -10.88 a 1,1 0 0 1 0,-2 h 10.88 a 1,1 0 0 1 0,2 z"
           id="el0xiodq6vv4o"
           class="animable" />
      </g>
    </g>
    <path
       d="m 271.65,209.15 h -22.31 a 1,1 0 0 1 0,-2 h 22.31 a 1,1 0 0 1 0,2 z"
       style="fill:#0d69e3"
       id="elvnrn2jgmrmr"
       class="animable" />
    <path
       d="m 335.74,209.15 h -58.15 a 1,1 0 0 1 0,-2 h 58.15 a 1,1 0 0 1 0,2 z"
       style="fill:#263238"
       id="eloxmorcbbatc"
       class="animable" />
    <g
       id="elpeq322o4nr">
      <g
         style="opacity:0.2"
         class="animable"
         id="elrf0kkvljmn">
        <path
           d="m 362.28,209.15 h -16.85 a 1,1 0 0 1 0,-2 h 16.85 a 1,1 0 0 1 0,2 z"
           style="fill:#263238"
           id="el7fysbyn0zyw"
           class="animable" />
      </g>
    </g>
    <g
       id="el1cd8t3onpbh">
      <g
         style="opacity:0.2"
         class="animable"
         id="elo92i50iwfc">
        <path
           d="m 310.62,215.67 h -58.28 a 1,1 0 0 1 0,-2 h 58.28 a 1,1 0 0 1 0,2 z"
           style="fill:#263238"
           id="elxcna6k3308"
           class="animable" />
      </g>
    </g>
    <path
       d="M 370.28,215.67 H 316 a 1,1 0 0 1 0,-2 h 54.32 a 1,1 0 0 1 0,2 z"
       style="fill:#0d69e3"
       id="elh03u202aydf"
       class="animable" />
    <path
       d="m 286.88,222.2 h -34.54 a 1,1 0 1 1 0,-2 h 34.54 a 1,1 0 0 1 0,2 z"
       style="fill:#263238"
       id="ellqlydi1988"
       class="animable" />
    <path
       d="m 328,222.2 h -34 a 1,1 0 0 1 0,-2 h 34 a 1,1 0 0 1 0,2 z"
       style="fill:#0d69e3"
       id="elrlxu3lkr3pq"
       class="animable" />
    <path
       d="m 370.28,222.2 h -36.72 a 1,1 0 0 1 0,-2 h 36.72 a 1,1 0 0 1 0,2 z"
       style="fill:#263238"
       id="elumn09imzq1s"
       class="animable" />
    <path
       d="m 290.08,228.73 h -20.73 a 1,1 0 0 1 0,-2 h 20.73 a 1,1 0 0 1 0,2 z"
       style="fill:#263238"
       id="elm036ipcisqs"
       class="animable" />
    <path
       d="m 319.44,228.73 h -22.63 a 1,1 0 0 1 0,-2 h 22.63 a 1,1 0 0 1 0,2 z"
       style="fill:#263238"
       id="elay2yuj4i8vi"
       class="animable" />
    <g
       id="elrhpjau2lqrm">
      <g
         style="opacity:0.2"
         class="animable"
         id="elmve2qem01an">
        <path
           d="m 361.28,228.73 h -36.7 a 1,1 0 0 1 0,-2 h 36.7 a 1,1 0 0 1 0,2 z"
           style="fill:#263238"
           id="elz0aqb0i9qsk"
           class="animable" />
      </g>
    </g>
    <g
       id="el5zhvnievcz7">
      <g
         style="opacity:0.2"
         class="animable"
         id="elojjlmkz7e2r">
        <path
           d="m 280.23,235.26 h -27.89 a 1,1 0 0 1 0,-2 h 27.89 a 1,1 0 0 1 0,2 z"
           style="fill:#263238"
           id="ellckmj6cawp"
           class="animable" />
      </g>
    </g>
    <path
       d="m 283.72,241.78 h -31.38 a 1,1 0 0 1 0,-2 h 31.38 a 1,1 0 0 1 0,2 z"
       style="fill:#0d69e3"
       id="el01slyyltopap"
       class="animable" />
    <path
       d="m 336.14,241.78 h -47.28 a 1,1 0 0 1 0,-2 h 47.28 a 1,1 0 0 1 0,2 z"
       style="fill:#263238"
       id="elpl3yu8hvv9e"
       class="animable" />
    <path
       d="m 370.28,241.78 h -28.41 a 1,1 0 0 1 0,-2 h 28.41 a 1,1 0 0 1 0,2 z"
       style="fill:#263238"
       id="elmjr2s0ob5pb"
       class="animable" />
    <g
       id="el9rznz6t0cof">
      <g
         style="opacity:0.2"
         class="animable"
         id="elfjqngr7mdbw">
        <path
           d="m 280.31,248.31 h -18 a 1,1 0 0 1 0,-2 h 18 a 1,1 0 0 1 0,2 z"
           style="fill:#263238"
           id="elh2vki734lzh"
           class="animable" />
      </g>
    </g>
    <g
       id="el4v3bczn8gsd">
      <g
         style="opacity:0.2"
         class="animable"
         id="eljuj6polggi">
        <path
           d="m 320.9,248.31 h -34.46 a 1,1 0 0 1 0,-2 h 34.46 a 1,1 0 0 1 0,2 z"
           style="fill:#263238"
           id="elbxydot7lw87"
           class="animable" />
      </g>
    </g>
    <path
       d="m 361.28,248.31 h -33.65 a 1,1 0 0 1 0,-2 h 33.65 a 1,1 0 0 1 0,2 z"
       style="fill:#263238"
       id="elvuqciyx44be"
       class="animable" />
    <path
       d="m 293.53,254.84 h -21.18 a 1,1 0 0 1 0,-2 h 21.18 a 1,1 0 0 1 0,2 z"
       style="fill:#263238"
       id="elyt077e3cbd9"
       class="animable" />
    <g
       id="elrj1sevle0wh">
      <g
         style="opacity:0.2"
         class="animable"
         id="eljmypgy5lbw">
        <path
           d="m 318.05,254.84 h -20.17 a 1,1 0 0 1 0,-2 h 20.17 a 1,1 0 0 1 0,2 z"
           style="fill:#263238"
           id="eljp05prrja1"
           class="animable" />
      </g>
    </g>
    <path
       d="m 361.28,254.84 h -36.9 a 1,1 0 0 1 0,-2 h 36.9 a 1,1 0 0 1 0,2 z"
       style="fill:#0d69e3"
       id="elc7yzjeknjd8"
       class="animable" />
    <g
       id="ellfe1tcj3c3b">
      <g
         style="opacity:0.2"
         class="animable"
         id="elo27sb3wtzn">
        <path
           d="m 298.24,261.37 h -25.89 a 1,1 0 0 1 0,-2 h 25.89 a 1,1 0 0 1 0,2 z"
           style="fill:#263238"
           id="eluxai5adya7e"
           class="animable" />
      </g>
    </g>
    <g
       id="elba4c947eyt">
      <path
         d="m 375,184.55 a 1.72,1.72 0 1 0 1.71,-1.72 1.71,1.71 0 0 0 -1.71,1.72 z"
         style="opacity:0.4;fill:#ffffff"
         class="animable"
         id="el9fkjfrdjbvo" />
    </g>
    <g
       id="elnb6ghkvygg">
      <circle
         cx="370.75"
         cy="184.55"
         r="1.71"
         style="opacity:0.4;fill:#ffffff"
         class="animable"
         id="eletgeo2clu58" />
    </g>
    <g
       id="elmezroslg09n">
      <circle
         cx="364.73999"
         cy="184.55"
         r="1.71"
         style="opacity:0.4;fill:#ffffff"
         class="animable"
         id="ele4a7mtblois" />
    </g>
  </g>
  <g
     id="freepik--speech-bubble--inject-18"
     class="animable animator-active"
     transform="matrix(1.2017642,0,0,1.0945134,-71.168476,-101.80069)">
    <path
       d="M 113.26,186.42 H 84.54 a 8.84,8.84 0 0 0 -8.85,8.84 v 25 a 8.84,8.84 0 0 0 8.84,8.85 h 20.37 l 6,7.89 v -7.89 h 2.35 a 8.85,8.85 0 0 0 8.85,-8.85 v -25 a 8.84,8.84 0 0 0 -8.84,-8.84 z"
       style="fill:#0d69e3"
       id="el8gp5sindbt"
       class="animable" />
    <g
       id="elhrx7d5ng2xq">
      <path
         d="M 113.26,186.42 H 84.54 a 8.84,8.84 0 0 0 -8.85,8.84 v 25 a 8.84,8.84 0 0 0 8.84,8.85 h 20.37 l 6,7.89 v -7.89 h 2.35 a 8.85,8.85 0 0 0 8.85,-8.85 v -25 a 8.84,8.84 0 0 0 -8.84,-8.84 z"
         style="opacity:0.7;fill:#ffffff"
         class="animable"
         id="elybmc4wiixf" />
    </g>
    <path
       d="m 97.4,214 a 1.33,1.33 0 0 1 -1,-0.46 L 90.81,207 a 1.3124405,1.3124405 0 1 1 2,-1.7 l 4.59,5.42 7.59,-8.94 a 1.31,1.31 0 0 1 2,1.69 l -8.59,10.09 a 1.31,1.31 0 0 1 -1,0.44 z"
       style="fill:#ffffff"
       id="elhh9nv8vqilm"
       class="animable" />
    <g
       id="eldxk77zuax4u">
      <circle
         cx="98.900002"
         cy="207.64999"
         r="14.26"
         style="fill:#0d69e3"
         class="animable"
         id="elzvmr3ofqxc" />
    </g>
  </g>
  <g
     id="freepik--Character--inject-18"
     class="animable"
     transform="matrix(1.2017642,0,0,1.0945134,-71.168476,-101.80069)">
    <path
       d="m 204.72,363.48 21.47,-1.05 -2.09,18.67 c 0,0 -14.9,2.84 -21.55,-7.76 z"
       style="fill:#ebb376"
       id="elm54qhp0bl3"
       class="animable" />
    <polygon
       points="224.1,381.1 226.19,362.43 240.03,368.94 235.14,382.48 "
       style="fill:#ebb376"
       id="elku2eodj87l"
       class="animable" />
    <path
       d="m 184.11,393.78 a 87.77,87.77 0 0 0 22.08,-16.39 l -1.47,-13.91 c -20.29,3 -32,7.29 -32,7.29 0,0 7.52,-26.95 0.64,-36.77 l -18.89,3.42 c 0,0 -20.07,41.72 -6.57,56.36 z"
       style="fill:#0d69e3"
       id="el7faykop3d63"
       class="animable" />
    <g
       id="el68otqthqf2h">
      <path
         d="m 184.08,393.78 a 88,88 0 0 0 22.1,-16.38 l -1.46,-13.93 c -19.64,2.88 -31.25,7 -32,7.27 0.25,-1 7.36,-27.11 0.62,-36.75 l -18.89,3.42 a 146.63,146.63 0 0 0 -9.21,26.06 c -2.7,11.39 -3.49,23.66 2.65,30.31 z"
         style="opacity:0.7;isolation:isolate;fill:#ffffff"
         class="animable"
         id="elfsuf6yn63b9" />
    </g>
    <g
       id="elgl5qdbkpxdq">
      <path
         d="m 168.55,393.78 c 6.67,-42.26 0.76,-53 0.76,-53 l -24,22.67 c -2.7,11.39 -3.49,23.66 2.65,30.31 z"
         style="opacity:0.2"
         class="animable"
         id="el1wz6j0mgffn" />
    </g>
    <path
       d="m 164.38,393.78 c 4.5,-21.36 9.55,-54.8 9,-59.78 -0.8,-7.24 -40.18,-38.26 -74.36,-15.68 -7,4.61 -10.57,54.34 -11.79,75.46 z"
       style="fill:#0d69e3"
       id="el0adyutdxl5i7"
       class="animable" />
    <g
       id="elfxmbvrgdo2g">
      <path
         d="m 164.38,393.78 c 4.5,-21.36 9.55,-54.81 9,-59.79 -0.8,-7.23 -40.19,-38.25 -74.37,-15.66 -2.53,1.69 -4.61,9.32 -6.33,19.4 -2.28,13.72 -3.86,31.94 -4.8,45.68 -0.26,3.89 -0.48,7.41 -0.65,10.37 z"
         style="opacity:0.7;isolation:isolate;fill:#ffffff"
         class="animable"
         id="elrpf0hwjicl" />
    </g>
    <path
       d="m 147.51,226.55 c -11.85,-4.79 -39.79,12.4 -42.24,43.05 -2.45,30.65 13.09,22.16 13.09,22.16 0,0 2.77,11.69 14.09,8.08 0,0 9.35,10.59 18.05,6.28 0,0 10.83,11.28 16.64,5.33 0,0 6.32,7.21 12.09,1.75 5.77,-5.46 22.26,-61.2 -3.61,-74.09 -25.87,-12.89 -28.11,-12.56 -28.11,-12.56 z"
       style="fill:#263238"
       id="elggsaaohcfpf"
       class="animable" />
    <path
       d="m 147.53,352 -1.14,-0.1 c 1.32,-14.76 -1.93,-21.29 -2,-21.35 l 1,-0.53 c 0.19,0.23 3.49,6.8 2.14,21.98 z"
       style="fill:#263238"
       id="elpjnu19ks47h"
       class="animable" />
    <path
       d="m 152.89,352.13 c -7.85,-18.49 1,-22.8 1.36,-23 l 0.47,1 -0.24,-0.52 0.24,0.52 c -0.08,0 -8.16,4.09 -0.78,21.49 z"
       style="fill:#263238"
       id="elvc11w9eeaxs"
       class="animable" />
    <path
       d="m 145.22,333.54 c 0,0 -15.15,-12 -38.67,-18.76 L 99,318.32 c 0,0 -12.66,-15.67 8.44,-20.8 21.1,-5.13 49.8,9 57,21.1 7.2,12.1 -12.52,16 -12.52,16 0,0 -1.81,-2.46 -6.7,-1.08 z"
       style="fill:#0d69e3"
       id="elqtxgoyx1z6o"
       class="animable" />
    <g
       id="el3y8oexg3429">
      <path
         d="m 145.22,333.54 c 0,0 -15.15,-12 -38.67,-18.76 L 99,318.32 c 0,0 -12.66,-15.67 8.44,-20.8 21.1,-5.13 49.8,9 57,21.1 7.2,12.1 -12.52,16 -12.52,16 0,0 -1.81,-2.46 -6.7,-1.08 z"
         style="opacity:0.6;isolation:isolate;fill:#ffffff"
         class="animable"
         id="elvesrxujke89" />
    </g>
    <path
       d="m 154.36,351.91 a 1,1 0 1 1 -1,-1 1,1 0 0 1 1,1 z"
       style="fill:#ffffff"
       id="el8rtqdgvcb33"
       class="animable" />
    <path
       d="m 147.87,351.91 a 1,1 0 1 1 -1,-1 1,1 0 0 1 1,1 z"
       style="fill:#ffffff"
       id="elgh8smoupljo"
       class="animable" />
    <path
       d="m 137.17,277 c -0.92,10.73 -4.21,29.83 -12.94,34 0,0 9.76,2 25,21.31 8.67,-6.08 5.39,-10.23 5.39,-10.23 -10.14,-6.65 -7.51,-14.85 -3.41,-22 z"
       style="fill:#ebb376"
       id="elko6irdz20ad"
       class="animable" />
    <g
       id="ellammovepdx">
      <path
         d="m 142.88,286.41 8.31,13.7 a 31.85,31.85 0 0 0 -2.51,5.2 c -4,-2.14 -8.38,-8.92 -7.55,-13.56 a 15.76,15.76 0 0 1 1.75,-5.34 z"
         style="opacity:0.2"
         class="animable"
         id="elygtfbp3i88" />
    </g>
    <path
       d="m 136,254.31 c -2.79,16.86 -4.33,23.92 1.92,34.77 9.39,16.33 30.2,17.1 37.85,1.66 6.88,-13.9 10.29,-39.14 -4.07,-50.28 -14.17,-10.98 -32.93,-3.02 -35.7,13.85 z"
       style="fill:#ebb376"
       id="el6g40wz0gdum"
       class="animable" />
    <path
       d="m 170.53,231.07 c 10.93,6.06 21.34,25 5.79,20.27 -2.35,4.55 -10.72,0.38 -15.59,-5.08 -0.82,3.79 -9.78,7.59 -16.38,1.72 3.19,4.6 -2.24,16.21 -7.89,14.21 -5.65,-2 -18.33,-4.63 -7.1,-22.53 11.23,-17.9 29.5,-15.08 41.17,-8.59 z"
       style="fill:#263238"
       id="el1pcu11wm48l"
       class="animable" />
    <path
       d="m 166.55,270.22 c 0,0 1,6.69 2.9,10.32 -2.13,1.23 -5,-0.41 -5,-0.41 z"
       style="fill:#d58745"
       id="elfgl41cxo2kl"
       class="animable" />
    <path
       d="m 155.65,283.13 a 13,13 0 0 0 2.21,0.84 0.38,0.38 0 0 0 0.48,-0.3 0.43,0.43 0 0 0 -0.31,-0.52 11.94,11.94 0 0 1 -7.76,-6.81 0.41,0.41 0 0 0 -0.52,-0.28 0.42,0.42 0 0 0 -0.23,0.54 12.55,12.55 0 0 0 6.13,6.53 z"
       style="fill:#263238"
       id="elprzlfo0v48c"
       class="animable" />
    <path
       d="m 127.49,266.43 a 13.71,13.71 0 0 0 6.38,8.31 c 4.07,2.23 7,-1.59 6.7,-6.34 -0.31,-4.29 -2.81,-10.61 -7.27,-10.86 -4.46,-0.25 -7.02,4.46 -5.81,8.89 z"
       style="fill:#ebb376"
       id="elyavpaiwabj"
       class="animable" />
    <path
       d="m 154.5,254.77 a 0.76,0.76 0 0 0 0.64,0 6.19,6.19 0 0 1 5.82,-0.1 0.76,0.76 0 0 0 1.09,-0.3 0.91,0.91 0 0 0 -0.33,-1.17 7.66,7.66 0 0 0 -7.36,0 0.86,0.86 0 0 0 -0.32,1.14 0.91,0.91 0 0 0 0.46,0.43 z"
       style="fill:#263238"
       id="elo5thfcd25rf"
       class="animable" />
    <path
       d="m 181.37,261.35 a 0.74,0.74 0 0 0 0.6,0.06 0.82,0.82 0 0 0 0.51,-1.06 8.77,8.77 0 0 0 -5.21,-5.78 0.76,0.76 0 0 0 -1,0.57 0.9,0.9 0 0 0 0.58,1.06 7,7 0 0 1 4.08,4.63 0.88,0.88 0 0 0 0.44,0.52 z"
       style="fill:#263238"
       id="el3qg8s74ni6x"
       class="animable" />
    <path
       d="m 159.88,265.8 c -0.49,1.34 -1.61,2.15 -2.5,1.82 -0.89,-0.33 -1.21,-1.67 -0.72,-3 0.49,-1.33 1.61,-2.15 2.49,-1.82 0.88,0.33 1.21,1.67 0.73,3 z"
       style="fill:#263238"
       id="el3ktpn072sbd"
       class="animable" />
    <path
       d="m 158.76,262.73 3.32,-0.07 c 0,0 -2.34,1.9 -3.32,0.07 z"
       style="fill:#263238"
       id="elo6csjykk01"
       class="animable" />
    <path
       d="m 176.67,271.13 c -0.49,1.33 -1.61,2.14 -2.49,1.82 -0.88,-0.32 -1.22,-1.68 -0.73,-3 0.49,-1.32 1.61,-2.14 2.5,-1.82 0.89,0.32 1.21,1.66 0.72,3 z"
       style="fill:#263238"
       id="elwsuyro3zqdf"
       class="animable" />
    <path
       d="m 175.56,268.05 3.31,-0.07 c 0,0 -2.34,1.91 -3.31,0.07 z"
       style="fill:#263238"
       id="elujvfu5xcgyo"
       class="animable" />
    <path
       d="m 158.3,275.25 a 7.35,7.35 0 0 1 -3,-0.63 7.59,7.59 0 0 1 -4.14,-4.84 10.13,10.13 0 0 1 5.29,-11.85 7.46,7.46 0 0 1 10.53,4.7 9.85,9.85 0 0 1 -0.51,6.88 v 0 a 9.84,9.84 0 0 1 -4.79,5 8,8 0 0 1 -3.38,0.74 z m 1.57,-16.95 a 7,7 0 0 0 -2.87,0.7 9,9 0 0 0 -4.68,10.48 6.3,6.3 0 0 0 8.95,4 8.71,8.71 0 0 0 4.23,-4.39 l 0.52,0.23 -0.52,-0.23 a 8.72,8.72 0 0 0 0.45,-6.09 6.44,6.44 0 0 0 -3.52,-4.13 6,6 0 0 0 -2.56,-0.57 z"
       style="fill:#263238"
       id="elpgxnevxm0d"
       class="animable" />
    <path
       d="m 174.94,280.35 a 7.16,7.16 0 0 1 -3,-0.63 7.63,7.63 0 0 1 -4.15,-4.84 10.15,10.15 0 0 1 5.3,-11.85 7.44,7.44 0 0 1 10.52,4.7 9.79,9.79 0 0 1 -0.5,6.88 v 0 a 9.3,9.3 0 0 1 -8.17,5.74 z m 1.59,-17 a 7,7 0 0 0 -2.92,0.66 8.77,8.77 0 0 0 -4.23,4.4 8.63,8.63 0 0 0 -0.45,6.08 6.46,6.46 0 0 0 3.52,4.14 c 3.5,1.57 7.84,-0.47 9.66,-4.53 v 0 a 8.77,8.77 0 0 0 0.45,-6.09 6.47,6.47 0 0 0 -3.52,-4.13 6.25,6.25 0 0 0 -2.51,-0.48 z"
       style="fill:#263238"
       id="ela3paguxyfoq"
       class="animable" />
    <path
       d="m 167.8,269.92 a 0.51,0.51 0 0 0 -0.29,-0.32 2.08,2.08 0 0 0 -1.29,0.19 l -0.5,-1 a 3.07,3.07 0 0 1 2.2,-0.23 1.64,1.64 0 0 1 1,1 z"
       style="fill:#263238"
       id="elcg88x77hueg"
       class="animable" />
    <g
       id="eloxc779hfaz">
      <rect
         x="144.64"
         y="254.56"
         width="1.14"
         height="14.1"
         style="fill:#263238"
         class="animable"
         id="el1ta3gadxrs6" />
    </g>
    <g
       id="el9h47ycio476">
      <path
         d="m 137.28,364.46 c 0,0 -26.31,20.16 -49.4,19 0.94,-13.74 2.52,-32 4.8,-45.68 2.36,-2.6 3.91,-4.18 3.91,-4.18 l 14,10.47 -3.41,4.28 c 0,0 21.19,-1.08 28.57,0 z"
         style="opacity:0.2"
         class="animable"
         id="elj0ucjxc1wml" />
    </g>
    <path
       d="m 140,348.3 21.06,-4.3 0.75,18.78 c 0,0 -14.29,5.06 -22.47,-4.41 z"
       style="fill:#ebb376"
       id="el89tuaves0cj"
       class="animable" />
    <polygon
       points="161.81,362.79 161.06,344.01 175.72,348.36 172.94,362.48 "
       style="fill:#ebb376"
       id="elqgtrj0ny2d"
       class="animable" />
    <polygon
       points="135.79,365.14 133.55,348.3 140,348.3 141.03,362.79 "
       style="fill:#0d69e3"
       id="el1op28c3ti68j"
       class="animable" />
    <g
       id="elbio3ppdlwte">
      <polygon
         points="135.79,365.14 133.55,348.3 140,348.3 141.03,362.79 "
         style="opacity:0.6;isolation:isolate;fill:#ffffff"
         class="animable"
         id="elil0543ziy6" />
    </g>
    <path
       d="m 106.55,314.78 a 24.36,24.36 0 0 0 -14.45,8.36 c -6.35,7.46 -28.73,29.62 -23.76,47.71 4.97,18.09 52.83,4.63 67.45,-5.71 l -2.24,-16.84 -33.15,2.43 10.22,-6.73 c 7.01,-19.5 -4.07,-29.22 -4.07,-29.22 z"
       style="fill:#0d69e3"
       id="elntru7zhwpoq"
       class="animable" />
    <g
       id="el9lkmoj4otnj">
      <path
         d="m 106.55,314.78 a 24.36,24.36 0 0 0 -14.45,8.36 c -6.35,7.46 -28.73,29.62 -23.76,47.71 4.97,18.09 52.83,4.63 67.45,-5.71 l -2.24,-16.84 -33.15,2.43 10.22,-6.73 c 7.01,-19.5 -4.07,-29.22 -4.07,-29.22 z"
         style="opacity:0.7;isolation:isolate;fill:#ffffff"
         class="animable"
         id="elml4t3wonite" />
    </g>
    <polygon
       points="208.59,378.95 203.81,379.73 202.56,363.8 208.59,362.79 "
       style="fill:#0d69e3"
       id="el0or9yzb0baa"
       class="animable" />
    <g
       id="el6i4iiicnqos">
      <polygon
         points="208.59,378.95 203.81,379.73 202.56,363.8 208.59,362.79 "
         style="opacity:0.6;isolation:isolate;fill:#ffffff"
         class="animable"
         id="elsucrrwmh39i" />
    </g>
    <path
       d="m 190.37,378.79 a 19.44,19.44 0 0 1 0.13,-2.65 l 0.18,-1.33 -1.29,0.76 -0.77,0.46 a 6.16,6.16 0 0 1 -0.78,0.29 2.32,2.32 0 0 1 -1.4,0 2.57,2.57 0 0 1 -1.12,-0.81 4.69,4.69 0 0 1 -0.79,-1.36 l -1.13,-3.15 -0.8,3.34 c -0.08,0.33 -0.13,0.67 -0.19,1 -0.06,0.33 -0.2,0.62 -0.29,0.93 a 3,3 0 0 1 -0.93,1.27 2,2 0 0 1 -1.51,0.13 6.23,6.23 0 0 1 -1.78,-0.78 l -1.74,-1.09 0.7,1.77 a 14.88,14.88 0 0 1 0.72,2.32 7.05,7.05 0 0 1 0.16,1.2 1.9,1.9 0 0 1 -0.26,1.18 1.92,1.92 0 0 0 0.68,-1.12 5.38,5.38 0 0 0 0.18,-1.32 9.13,9.13 0 0 0 0,-1.05 8.34,8.34 0 0 0 0.9,0.44 3.55,3.55 0 0 0 2.85,-0.07 4.28,4.28 0 0 0 1.87,-2.12 v -0.13 a 3.81,3.81 0 0 0 4.45,0.95 6.86,6.86 0 0 0 0.85,-0.46 c 0,0 0,0.07 0,0.11 a 13.37,13.37 0 0 0 0.29,1.4 7.3,7.3 0 0 0 0.5,1.35 3.11,3.11 0 0 0 0.87,1.12 3.48,3.48 0 0 1 -0.43,-1.27 9.82,9.82 0 0 1 -0.12,-1.31 z"
       style="fill:#0d69e3"
       id="el69063mvudjc"
       class="animable" />
    <path
       d="m 226.14,356.23 a 5.72,5.72 0 0 1 -2.31,-0.25 8.38,8.38 0 0 1 -2.17,-1 6.5,6.5 0 0 1 -1.61,-1.73 9,9 0 0 1 -1.07,-2.15 l -0.66,-2 -1.12,1.77 a 9.62,9.62 0 0 1 -1.72,2 3.22,3.22 0 0 1 -2,0.92 h -0.24 l -0.3,-0.06 c -0.21,0 -0.41,-0.1 -0.62,-0.15 a 7.48,7.48 0 0 1 -1.21,-0.52 10.37,10.37 0 0 1 -2.15,-1.6 l -1.74,-1.67 0.36,2.29 a 18.36,18.36 0 0 1 0.23,3.7 5.14,5.14 0 0 1 -0.35,1.7 1.13,1.13 0 0 1 -1.22,0.7 h -0.45 l 0.14,0.37 q 0.44,1.13 0.9,2.25 c -0.09,-0.67 -0.2,-1.34 -0.32,-2 h 0.19 a 3.17,3.17 0 0 0 0.59,-0.1 4.66,4.66 0 0 0 0.53,-0.32 c 0.13,-0.14 0.27,-0.29 0.39,-0.44 a 5.27,5.27 0 0 0 0.75,-2 12.73,12.73 0 0 0 0.22,-2 v 0 a 11.41,11.41 0 0 0 1,0.74 8.86,8.86 0 0 0 1.48,0.73 5.18,5.18 0 0 0 1.73,0.39 5.07,5.07 0 0 0 3.34,-1.32 9.28,9.28 0 0 0 1.09,-1.08 11.42,11.42 0 0 0 0.64,1 8.28,8.28 0 0 0 2.2,2.09 8.58,8.58 0 0 0 2.77,1.08 8.08,8.08 0 0 0 1.91,0.14 c -0.08,0.2 -0.17,0.4 -0.24,0.61 a 13.59,13.59 0 0 0 -0.41,1.76 6.88,6.88 0 0 0 -0.08,1.81 3.58,3.58 0 0 0 0.53,1.7 3.74,3.74 0 0 1 -0.13,-1.69 8.6,8.6 0 0 1 0.39,-1.65 17,17 0 0 1 1.45,-3 l 0.63,-1.07 z"
       style="fill:#0d69e3"
       id="elufjun33i95j"
       class="animable" />
  </g>
  <g
     id="freepik--Table--inject-18"
     class="animable"
     transform="matrix(1.2017642,0,0,1.0945134,-71.168476,-101.80069)">
    <g
       id="el37en76t3nen">
      <path
         d="m 75.5,400.08 h 350.7 a 4.44,4.44 0 0 1 4.44,4.44 v 10.8 H 71.06 v -10.8 a 4.44,4.44 0 0 1 4.44,-4.44 z"
         style="fill:#0d69e3"
         class="animable"
         id="el5iy297fp3tt" />
    </g>
    <g
       id="elhg7ymmc9xqq">
      <rect
         x="71.059998"
         y="400.07999"
         width="359.59"
         height="7.6199999"
         style="opacity:0.2;isolation:isolate"
         class="animable"
         id="elu5wruij2kf" />
    </g>
    <path
       d="m 63.52,402.07 h 374.66 a 4.3,4.3 0 0 0 4.3,-4.29 v 0 a 4.3,4.3 0 0 0 -4.3,-4.3 H 63.52 a 4.3,4.3 0 0 0 -4.3,4.3 v 0 a 4.3,4.3 0 0 0 4.3,4.29 z"
       style="fill:#0d69e3"
       id="eli84qgwzztj"
       class="animable" />
  </g>
  <g
     id="freepik--device-2--inject-18"
     class="animable"
     transform="matrix(1.2017642,0,0,1.0945134,-71.168476,-101.80069)">
    <path
       d="m 412.79,341 -10.94,49.62 a 3.73,3.73 0 0 1 -3.55,2.82 h -59.76 a 2.41,2.41 0 0 1 -2.24,-3.12 l 10.92,-49.24 a 3.42,3.42 0 0 1 3.55,-2.43 h 59.76 c 1.6,0.04 2.61,0.77 2.26,2.35 z"
       style="fill:#263238"
       id="elqj76oyhmysb"
       class="animable" />
    <g
       id="elxlkwfz5v5e">
      <path
         d="m 412.79,341 -10.94,49.62 a 3.73,3.73 0 0 1 -3.55,2.82 h -57.73 a 2.41,2.41 0 0 1 -2.25,-3.12 l 10.94,-49.24 a 3.39,3.39 0 0 1 3.55,-2.43 h 57.72 c 1.6,0.04 2.61,0.77 2.26,2.35 z"
         style="opacity:0.4;isolation:isolate;fill:#ffffff"
         class="animable"
         id="elidbs65p0um" />
    </g>
    <path
       d="m 403.26,391.91 10.88,-49.36 c 0.36,-1.62 -0.65,-2.35 -2.26,-2.35 h -57.72 a 3.41,3.41 0 0 0 -3.55,2.43 l -11.05,49.93 z"
       style="fill:#0d69e3"
       id="elspbd5f7vabs"
       class="animable" />
    <g
       id="elsu6yqslokp">
      <path
         d="m 414.14,342.54 -5.74,26.08 -5.15,23.29 -34.1,0.35 -29.58,0.29 11,-49.92 a 3.39,3.39 0 0 1 3.54,-2.43 h 57.79 c 1.6,0 2.6,0.74 2.24,2.34 z"
         style="opacity:0.4;isolation:isolate;fill:#ffffff"
         class="animable"
         id="el6kbtcd11bqm" />
    </g>
    <g
       id="elf3unn9qvqlj">
      <path
         d="m 408.4,368.62 -5.15,23.29 -34.1,0.35 h -28.32 l 4.63,-21.3 a 3,3 0 0 1 2.9,-2.34 z"
         style="opacity:0.2;isolation:isolate"
         class="animable"
         id="elz09pu70v98s" />
    </g>
    <path
       d="m 409.38,371.86 a 3.39,3.39 0 0 0 -3.55,-2.42 h -57.72 c -1.6,0 -2.61,0.72 -2.26,2.34 l 4.38,19.86 h -9.75 a 0.92,0.92 0 1 0 0,1.84 h 71.1 a 2.09,2.09 0 0 0 2,-2.55 z"
       style="fill:#0d69e3"
       id="elryoed4ztp68"
       class="animable" />
    <g
       id="eleah5dpwxlvq">
      <path
         d="m 409.38,371.86 a 3.39,3.39 0 0 0 -3.55,-2.42 h -57.72 c -1.6,0 -2.61,0.72 -2.26,2.34 l 4.38,19.86 h -9.75 a 0.92,0.92 0 1 0 0,1.84 h 71.1 a 2.09,2.09 0 0 0 2,-2.55 z"
         style="opacity:0.4;isolation:isolate;fill:#ffffff"
         class="animable"
         id="eldu6qr6wty3b" />
    </g>
    <polygon
       points="334.98,385.72 338.24,385.72 338.75,383.91 335.4,383.91 "
       id="elmz7wyya3ld"
       class="animable" />
    <path
       d="m 317.58,393.71 h -9.65 a 0.56,0.56 0 0 1 -0.57,-0.57 0.57,0.57 0 0 1 0.57,-0.57 h 9.65 a 10.55,10.55 0 0 0 8.25,-3.95 11.68,11.68 0 0 1 9.15,-4.38 h 1.7 a 0.58,0.58 0 0 1 0.57,0.57 0.57,0.57 0 0 1 -0.57,0.57 H 335 a 10.55,10.55 0 0 0 -8.25,3.95 11.69,11.69 0 0 1 -9.17,4.38 z"
       id="eljezedther4"
       class="animable" />
  </g>
  <g
     id="freepik--device-1--inject-18"
     class="animable"
     transform="matrix(1.2017642,0,0,1.0945134,-71.168476,-101.80069)">
    <path
       d="m 156.78,386.65 v 4.17 c 0,1.88 2.27,2.66 4.15,2.66 h 146.58 c 1.86,0 4.07,-0.78 4.07,-2.66 v -4.17 z"
       style="fill:#263238"
       id="elpjlkxdn2pt"
       class="animable" />
    <g
       id="el7h32xs2h6ey">
      <path
         d="m 156.78,386.65 v 4.17 c 0,1.88 2.27,2.66 4.15,2.66 h 146.58 c 1.86,0 4.07,-0.78 4.07,-2.66 v -4.17 z"
         style="opacity:0.4;isolation:isolate;fill:#ffffff"
         class="animable"
         id="elqmg00lh0zd" />
    </g>
    <g
       id="el50m9qqqu6af">
      <path
         d="m 206.72,386.65 v 4.17 c 0,1.88 2.23,2.66 4.11,2.66 h 96.68 c 1.86,0 4.07,-0.78 4.07,-2.66 v -4.17 z"
         style="opacity:0.2;isolation:isolate"
         class="animable"
         id="el6w5r4mdxbg9" />
    </g>
    <path
       d="m 336.11,307.33 -17.45,79.15 A 5.94,5.94 0 0 1 313,391 h -95.33 c -2.53,0 -4.17,-2.37 -3.58,-5 l 17.43,-78.55 c 0.59,-2.58 3.11,-3.87 5.67,-3.87 h 95.32 c 2.56,0.01 4.17,1.17 3.6,3.75 z"
       style="fill:#263238"
       id="elw606vmhyhv"
       class="animable" />
    <g
       id="elm4vxi3v425j">
      <path
         d="m 336.11,307.33 -17.45,79.15 A 5.94,5.94 0 0 1 313,391 h -92.09 c -2.56,0 -4.17,-2.37 -3.6,-5 l 17.45,-78.55 c 0.57,-2.58 3.11,-3.87 5.67,-3.87 h 92.08 c 2.56,0.01 4.17,1.17 3.6,3.75 z"
         style="opacity:0.4;isolation:isolate;fill:#ffffff"
         class="animable"
         id="elpl0sj1qpzkh" />
    </g>
    <g
       id="elcmdce3hk4qh">
      <path
         d="m 289.11,347.56 v 0 c 0,6.78 -7.26,12.29 -12.59,12.29 -5.33,0 -8.48,-5.51 -7,-12.29 1.48,-6.78 6.81,-12.05 12,-12.26 -1.52,6.78 1.73,12.26 7,12.26 a 3.12,3.12 0 0 0 0.59,0 z"
         style="opacity:0.2;isolation:isolate"
         class="animable"
         id="elq31qa4lker" />
    </g>
  </g>
  <defs
     id="defs1111">
    <filter
       id="active"
       height="2">
      <feMorphology
         in="SourceAlpha"
         result="DILATED"
         operator="dilate"
         radius="2"
         id="feMorphology1083" />
      <feFlood
         flood-color="#32DFEC"
         flood-opacity="1"
         result="PINK"
         id="feFlood1085" />
      <feComposite
         in="PINK"
         in2="DILATED"
         operator="in"
         result="OUTLINE"
         id="feComposite1087" />
      <feMerge
         id="feMerge1093">
        <feMergeNode
           in="OUTLINE"
           id="feMergeNode1089" />
        <feMergeNode
           in="SourceGraphic"
           id="feMergeNode1091" />
      </feMerge>
    </filter>
    <filter
       id="hover"
       height="2">
      <feMorphology
         in="SourceAlpha"
         result="DILATED"
         operator="dilate"
         radius="2"
         id="feMorphology1096" />
      <feFlood
         flood-color="#ff0000"
         flood-opacity="0.5"
         result="PINK"
         id="feFlood1098" />
      <feComposite
         in="PINK"
         in2="DILATED"
         operator="in"
         result="OUTLINE"
         id="feComposite1100" />
      <feMerge
         id="feMerge1106">
        <feMergeNode
           in="OUTLINE"
           id="feMergeNode1102" />
        <feMergeNode
           in="SourceGraphic"
           id="feMergeNode1104" />
      </feMerge>
      <feColorMatrix
         type="matrix"
         values="0   0   0   0   0                0   1   0   0   0                0   0   0   0   0                0   0   0   1   0 "
         id="feColorMatrix1108" />
    </filter>
  </defs>
</svg>
