<svg xmlns="http://www.w3.org/2000/svg" version="1.1" xmlns:xlink="http://www.w3.org/1999/xlink" xmlns:svgjs="http://svgjs.com/svgjs" width="1440" height="560" preserveAspectRatio="none" viewBox="0 0 1440 560"><g mask="url(&quot;#SvgjsMask1005&quot;)" fill="none"><path d="M636.72 640.55C751.33 636.03 814.64 464.84 1053.58 448.87 1292.51 432.9 1345.52 181.46 1470.43 168.87" stroke="rgba(92, 171, 249, 0.6)" stroke-width="2"></path><path d="M752.57 596.61C855.48 595.57 932.32 493.54 1149.03 485.77 1365.74 478 1429.89 254.16 1545.49 244.97" stroke="rgba(92, 171, 249, 0.6)" stroke-width="2"></path><path d="M568.94 659.11C670 639.14 614.96 395.49 872.66 380.64 1130.36 365.79 1319.66 176.26 1480.09 173.44" stroke="rgba(92, 171, 249, 0.6)" stroke-width="2"></path><path d="M612.29 608.79C706.33 599.19 662.68 410.4 925.62 397.18 1188.57 383.96 1382.45 139.25 1552.29 133.98" stroke="rgba(92, 171, 249, 0.6)" stroke-width="2"></path><path d="M584.66 598.59C739.42 579 830.8 227.38 1085.62 226.58 1340.43 225.78 1453.11 408.46 1586.57 411.38" stroke="rgba(92, 171, 249, 0.6)" stroke-width="2"></path></g><defs><mask id="SvgjsMask1005"><rect width="1440" height="560" fill="#ffffff"></rect></mask></defs></svg>