<svg xmlns="http://www.w3.org/2000/svg" version="1.1" xmlns:xlink="http://www.w3.org/1999/xlink" xmlns:svgjs="http://svgjs.com/svgjs" width="1440" height="560" preserveAspectRatio="none" viewBox="0 0 1440 560"><g mask="url(&quot;#SvgjsMask1001&quot;)" fill="none"><path d="M287.99 592.82C458.84 592.35 610.55 476.19 960.67 472.3 1310.79 468.41 1452.32 208.41 1633.35 203.5" stroke="rgba(92, 171, 249, 0.6)" stroke-width="2"></path><path d="M312.39 671.87C504.02 665.02 642.33 368.22 1013.68 361.24 1385.04 354.26 1534.03 183.45 1714.98 182.04" stroke="rgba(92, 171, 249, 0.6)" stroke-width="2"></path><path d="M894.49 651.19C968.27 647.88 937.89 533.42 1160.49 522.63 1383.09 511.84 1543.66 261.32 1692.48 253.83" stroke="rgba(92, 171, 249, 0.6)" stroke-width="2"></path><path d="M649.56 652.4C771.65 637.15 843.36 360.96 1045.51 360.11 1247.65 359.26 1337.37 487.3 1441.45 488.91" stroke="rgba(92, 171, 249, 0.6)" stroke-width="2"></path><path d="M841.88 601.23C962.72 595.76 1038.85 398.87 1277.24 390.07 1515.64 381.27 1594.96 214.33 1712.61 210.87" stroke="rgba(92, 171, 249, 0.6)" stroke-width="2"></path></g><defs><mask id="SvgjsMask1001"><rect width="1440" height="560" fill="#ffffff"></rect></mask></defs></svg>